# File produced by Open Asset Import Library (http://www.assimp.sf.net)
# (assimp v3.1.187496374)

mtllib ariel_mesh.obj.mtl

# 24 vertex positions
v  -0.276717 0.258832 0.261975
v  0.276717 0.258832 0.261975
v  0.276717 1.52652 0.261975
v  -0.276717 1.52652 0.261975
v  -0.276717 1.52652 -0.261975
v  0.276717 1.52652 -0.261975
v  0.276717 0.258832 -0.261975
v  -0.276717 0.258832 -0.261975
v  0.0754898 1.52652 0.0714681
v  -0.0754898 1.52652 0.0714681
v  0.0754898 1.52652 -0.0714679
v  -0.0754898 1.52652 -0.0714679
v  0.0754898 6.73591 0.0714681
v  -0.0754898 6.73591 0.0714681
v  0.0754898 6.73591 -0.0714679
v  -0.0754898 6.73591 -0.0714679
v  -0.38983 0.258832 -0.369061
v  0.38983 0.258832 -0.369061
v  0.38983 0 -0.369061
v  -0.38983 0 -0.369061
v  0.38983 0.258832 0.369061
v  0.38983 0 0.369061
v  -0.38983 0.258832 0.369061
v  -0.38983 0 0.369061

# 68 UV coordinates
vt 0.43539 0.332811 0
vt 0.425434 0.332811 0
vt 0.425434 0.30667 0
vt 0.43539 0.30667 0
vt 0.404943 0.332811 0
vt 0.394987 0.332811 0
vt 0.394987 0.30667 0
vt 0.404943 0.30667 0
vt 0.300726 0.332811 0
vt 0.2913 0.332811 0
vt 0.2913 0.30667 0
vt 0.300726 0.30667 0
vt 0.290781 0.332811 0
vt 0.281355 0.332811 0
vt 0.281355 0.30667 0
vt 0.290781 0.30667 0
vt 0.543945 0.300872 0
vt 0.543945 0.288676 0
vt 0.547599 0.292536 0
vt 0.547599 0.297011 0
vt 0.555491 0.300872 0
vt 0.555491 0.288676 0
vt 0.551836 0.292536 0
vt 0.551836 0.297011 0
vt 0.46752 0.332811 0
vt 0.463866 0.332811 0
vt 0.463866 0.266968 0
vt 0.46752 0.266968 0
vt 0.339129 0.332811 0
vt 0.335669 0.332811 0
vt 0.335669 0.266968 0
vt 0.339129 0.266968 0
vt 0.468012 0.256198 0
vt 0.471666 0.256198 0
vt 0.471666 0.32204 0
vt 0.468012 0.32204 0
vt 0.335151 0.332811 0
vt 0.331692 0.332811 0
vt 0.331692 0.266968 0
vt 0.335151 0.266968 0
vt 0.468434 0.318636 0
vt 0.468434 0.287037 0
vt 0.47513 0.287037 0
vt 0.47513 0.318636 0
vt 0.279329 0.287037 0
vt 0.279329 0.316952 0
vt 0.272634 0.316952 0
vt 0.272634 0.287037 0
vt 0.411118 0.287037 0
vt 0.411118 0.318636 0
vt 0.404422 0.318636 0
vt 0.404422 0.287037 0
vt 0.271648 0.287037 0
vt 0.271648 0.316952 0
vt 0.264952 0.316952 0
vt 0.264952 0.287037 0
vt 0.60671 0.286549 0
vt 0.60671 0.274353 0
vt 0.60907 0.271861 0
vt 0.60907 0.289042 0
vt 0.595164 0.286549 0
vt 0.595164 0.274353 0
vt 0.592804 0.271861 0
vt 0.592804 0.289042 0
vt 0.394943 0.146761 0
vt 0.465418 0.146761 0
vt 0.465418 0.213481 0
vt 0.394943 0.213481 0

# 13 vertex normals
vn 0 0 1
vn 0 0 -1
vn 1 0 0
vn -1 0 0
vn 0 1 2.14344e-07
vn 0 1 2.2466e-07
vn 0 1 -2.14344e-07
vn 0 1 -2.2466e-07
vn 0 1 9.2395e-08
vn 0 1 8.81524e-08
vn 0 1 -9.23951e-08
vn 0 1 -8.81524e-08
vn 0 1 0

# Mesh 'ariel_mesh' with 42 faces
g ariel_mesh
usemtl setexport2013:props_material
f  1/1/1 2/2/1 3/3/1
f  1/1/1 3/3/1 4/4/1
f  5/5/2 6/6/2 7/7/2
f  5/5/2 7/7/2 8/8/2
f  2/9/3 7/10/3 6/11/3
f  2/9/3 6/11/3 3/12/3
f  8/13/4 1/14/4 4/15/4
f  8/13/4 4/15/4 5/16/4
f  4/17/5 3/18/5 9/19/6
f  4/17/5 9/19/6 10/20/6
f  5/21/7 4/17/5 10/20/6
f  3/18/5 6/22/7 11/23/8
f  3/18/5 11/23/8 9/19/6
f  6/22/7 5/21/7 12/24/8
f  6/22/7 12/24/8 11/23/8
f  5/21/7 10/20/6 12/24/8
f  10/25/1 9/26/1 13/27/1
f  10/25/1 13/27/1 14/28/1
f  9/29/3 11/30/3 15/31/3
f  9/29/3 15/31/3 13/32/3
f  11/33/2 12/34/2 16/35/2
f  11/33/2 16/35/2 15/36/2
f  12/37/4 10/38/4 14/39/4
f  12/37/4 14/39/4 16/40/4
f  17/41/2 18/42/2 19/43/2
f  17/41/2 19/43/2 20/44/2
f  18/45/3 21/46/3 22/47/3
f  18/45/3 22/47/3 19/48/3
f  21/49/1 23/50/1 24/51/1
f  21/49/1 24/51/1 22/52/1
f  23/53/4 17/54/4 20/55/4
f  23/53/4 20/55/4 24/56/4
f  8/57/9 7/58/9 18/59/10
f  8/57/9 18/59/10 17/60/10
f  1/61/11 8/57/9 17/60/10
f  7/58/9 2/62/11 21/63/12
f  7/58/9 21/63/12 18/59/10
f  2/62/11 1/61/11 23/64/12
f  2/62/11 23/64/12 21/63/12
f  1/61/11 17/60/10 23/64/12
f  14/65/13 13/66/13 15/67/13
f  14/65/13 15/67/13 16/68/13

