# File produced by Open Asset Import Library (http://www.assimp.sf.net)
# (assimp v3.1.187496374)

mtllib billboard_mesh.obj.mtl

# 68 vertex positions
v  -2.52529 1.40892 0.911591
v  0 1.40892 0.911591
v  0 4.3453 0.911591
v  -2.52529 4.3453 0.911591
v  2.52529 1.40892 0.911591
v  2.52529 4.3453 0.911591
v  0 4.3453 0.697867
v  -2.52529 4.3453 0.697867
v  2.52529 4.3453 0.697867
v  0 1.40892 0.697867
v  -2.52529 1.40892 0.697867
v  2.52529 1.40892 0.697867
v  2.1326 5.064 1.13417
v  2.1326 5.064 0.948017
v  1.93596 5.064 0.948017
v  1.93596 5.064 1.13417
v  1.93596 0 1.13417
v  1.93596 0 0.948017
v  2.1326 0 1.13417
v  2.1326 0 0.948017
v  1.97941 4.91688 0.955197
v  1.97941 5.02444 0.955197
v  2.08914 5.02444 0.955197
v  2.08914 4.91688 0.955197
v  2.08914 5.02444 0.204014
v  2.08914 4.45801 -0.679372
v  1.97941 4.45801 -0.679366
v  1.97941 5.02444 0.204025
v  2.21852 4.45801 -0.679372
v  2.21852 4.0032 -1.13417
v  1.85003 4.0032 -1.13417
v  1.85003 4.45801 -0.679366
v  1.97941 4.38196 -0.60332
v  1.97941 4.91688 0.204025
v  2.08914 4.91688 0.204014
v  2.08914 4.38197 -0.60332
v  1.85003 4.38196 -0.60332
v  1.85003 3.92714 -1.05812
v  2.21852 3.92714 -1.05813
v  2.21852 4.38197 -0.60332
v  -1.86584 5.064 1.13417
v  -1.86584 5.064 0.948017
v  -2.06248 5.064 0.948017
v  -2.06248 5.064 1.13417
v  -2.06248 0 1.13417
v  -2.06248 0 0.948017
v  -1.86584 0 1.13417
v  -1.86584 0 0.948017
v  -2.01902 4.91688 0.955197
v  -2.01902 5.02444 0.955197
v  -1.9093 5.02444 0.955197
v  -1.9093 4.91688 0.955197
v  -1.9093 5.02444 0.204014
v  -1.9093 4.45801 -0.679372
v  -2.01902 4.45801 -0.679366
v  -2.01903 5.02444 0.204025
v  -1.77991 4.45801 -0.679372
v  -1.77991 4.0032 -1.13417
v  -2.14841 4.0032 -1.13417
v  -2.14841 4.45801 -0.679366
v  -2.01902 4.38196 -0.60332
v  -2.01903 4.91688 0.204025
v  -1.9093 4.91688 0.204014
v  -1.9093 4.38197 -0.60332
v  -2.14841 4.38196 -0.60332
v  -2.14841 3.92714 -1.05812
v  -1.77991 3.92714 -1.05813
v  -1.77991 4.38197 -0.60332

# 114 UV coordinates
vt 0.148295 -0.0463147 0
vt 0.500219 -0.0463147 0
vt 0.50022 -0.0161187 0
vt 0.148295 -0.0161187 0
vt 0.852144 -0.0463147 0
vt 0.852144 -0.0161187 0
vt 1.22348 0.0848917 0
vt 1.57541 0.0848917 0
vt 1.57541 0.101545 0
vt 1.22348 0.101545 0
vt 1.92733 0.0848917 0
vt 1.92733 0.101545 0
vt 1.01508 -0.176718 0
vt 0.507714 -0.177554 0
vt 0.508025 -0.762376 0
vt 1.01332 -0.761802 0
vt 0.000346618 -0.178389 0
vt 0.00273076 -0.762949 0
vt 1.22282 0.00738284 0
vt 1.57474 0.00738284 0
vt 1.57474 0.0244383 0
vt 1.22282 0.0244383 0
vt 1.92667 0.00738284 0
vt 1.92667 0.0244384 0
vt 1.80334 0.0597095 0
vt 1.80334 0.073962 0
vt 1.39412 0.0739618 0
vt 1.39412 0.0597094 0
vt 1.80334 0.0596402 0
vt 1.80334 0.0738927 0
vt 1.39412 0.0738926 0
vt 1.39412 0.0596401 0
vt 0.679264 1.1015 0
vt 0.722022 1.1015 0
vt 0.722022 1.09506 0
vt 0.679264 1.09506 0
vt 0.461443 1.13322 0
vt 0.461443 1.1198 0
vt 0.457983 1.1198 0
vt 0.457983 1.13322 0
vt 0.577724 1.042 0
vt 0.577724 1.05542 0
vt 0.581378 1.05542 0
vt 0.581378 1.042 0
vt 0.454006 1.1198 0
vt 0.454006 1.13322 0
vt 0.457465 1.13322 0
vt 0.457465 1.1198 0
vt 0.58187 1.03772 0
vt 0.58187 1.05113 0
vt 0.585524 1.03772 0
vt 0.582678 1.05074 0
vt 0.582678 1.05103 0
vt 0.585524 1.05113 0
vt 0.584717 1.05103 0
vt 0.584717 1.05074 0
vt 0.702391 1.09676 0
vt 0.702391 1.09477 0
vt 0.700352 1.09477 0
vt 0.700352 1.09676 0
vt 0.704795 1.09477 0
vt 0.704795 1.09307 0
vt 0.697947 1.09307 0
vt 0.697947 1.09477 0
vt 0.434199 1.12784 0
vt 0.434199 1.12983 0
vt 0.436198 1.12983 0
vt 0.436198 1.12784 0
vt 0.434199 1.12585 0
vt 0.436198 1.12585 0
vt 0.438799 1.12784 0
vt 0.438799 1.12585 0
vt 0.4368 1.12585 0
vt 0.4368 1.12784 0
vt 0.438799 1.12983 0
vt 0.4368 1.12983 0
vt 0.449044 1.12614 0
vt 0.449044 1.12813 0
vt 0.451083 1.12813 0
vt 0.451083 1.12614 0
vt 0.44664 1.12813 0
vt 0.44664 1.12983 0
vt 0.453487 1.12983 0
vt 0.453487 1.12813 0
vt 0.434217 1.1241 0
vt 0.434217 1.12581 0
vt 0.436215 1.12581 0
vt 0.436215 1.1241 0
vt 0.438695 1.12581 0
vt 0.438695 1.1241 0
vt 0.436697 1.1241 0
vt 0.436697 1.12581 0
vt 0.607955 1.02062 0
vt 0.607955 1.00976 0
vt 0.583252 1.00976 0
vt 0.583252 1.02062 0
vt 0.566734 1.0463 0
vt 0.566734 1.04532 0
vt 0.564736 1.04532 0
vt 0.564736 1.0463 0
vt 0.613908 1.00976 0
vt 0.613908 1.02062 0
vt 0.638611 1.02062 0
vt 0.638611 1.00976 0
vt 0.702391 1.09875 0
vt 0.700352 1.09875 0
vt 0.449044 1.12415 0
vt 0.451083 1.12415 0
vt 0.679263 1.1015 0
vt 0.722021 1.1015 0
vt 0.722021 1.09506 0
vt 0.679264 1.09506 0
vt 0.577724 1.042 0
vt 0.581378 1.042 0

# 24 vertex normals
vn 0 0 1
vn 0 1 0
vn 0 0 -1
vn 0 -1 0
vn 1 0 0
vn -1 0 0
vn -1 0 -4.44089e-16
vn -4.44089e-16 0 1
vn 1 0 4.44089e-16
vn 4.44089e-16 0 -1
vn 0.163112 0 -0.986607
vn 4.42824e-16 -0.075446 -0.99715
vn -0.163111 0 -0.986608
vn 4.42823e-16 0.075447 -0.99715
vn -3.88221e-05 0.841809 -0.539775
vn -1 0 -1.33264e-06
vn 1 1.2097e-06 0
vn 6.63938e-05 -0.833623 0.552334
vn 0 1 7.23121e-07
vn -3.88234e-05 0.84181 -0.539775
vn -1 -2.4193e-06 -5.10845e-06
vn 1 -2.41939e-06 -4.88626e-06
vn 6.63961e-05 -0.833622 0.552335
vn -1 0 1.42828e-05

# Mesh 'billboard_mesh' with 116 faces
g billboard_mesh
usemtl billboard_material
f  1/1/1 2/2/1 3/3/1
f  1/1/1 3/3/1 4/4/1
f  3/3/1 2/2/1 5/5/1
f  3/3/1 5/5/1 6/6/1
f  4/7/2 3/8/2 7/9/2
f  4/7/2 7/9/2 8/10/2
f  3/8/2 6/11/2 9/12/2
f  3/8/2 9/12/2 7/9/2
f  8/13/3 7/14/3 10/15/3
f  8/13/3 10/15/3 11/16/3
f  10/15/3 7/14/3 9/17/3
f  10/15/3 9/17/3 12/18/3
f  11/19/4 10/20/4 2/21/4
f  11/19/4 2/21/4 1/22/4
f  2/21/4 10/20/4 12/23/4
f  2/21/4 12/23/4 5/24/4
f  5/25/5 12/26/5 9/27/5
f  5/25/5 9/27/5 6/28/5
f  11/29/6 1/30/6 4/31/6
f  11/29/6 4/31/6 8/32/6
f  13/33/2 14/34/2 15/35/2
f  13/33/2 15/35/2 16/36/2
f  17/37/7 16/38/7 15/39/7
f  17/37/7 15/39/7 18/40/7
f  16/41/8 17/42/8 19/43/8
f  16/41/8 19/43/8 13/44/8
f  13/45/9 19/46/9 20/47/9
f  13/45/9 20/47/9 14/48/9
f  18/49/10 15/50/10 20/51/10
f  20/51/10 15/50/10 21/52/11
f  21/52/11 15/50/10 22/53/12
f  15/50/10 14/54/10 22/53/12
f  14/54/10 20/51/10 23/55/13
f  23/55/13 20/51/10 24/56/14
f  20/51/10 21/52/11 24/56/14
f  22/53/12 14/54/10 23/55/13
f  25/57/15 26/58/2 27/59/2
f  25/57/15 27/59/2 28/60/15
f  27/59/2 29/61/2 30/62/2
f  27/59/2 30/62/2 31/63/2
f  31/63/2 32/64/2 27/59/2
f  28/65/16 27/66/7 33/67/7
f  28/65/16 33/67/7 34/68/16
f  22/69/7 28/65/16 34/68/16
f  22/69/7 34/68/16 21/70/7
f  35/71/17 36/72/9 26/73/9
f  35/71/17 26/73/9 25/74/17
f  24/75/9 35/71/17 25/74/17
f  24/75/9 25/74/17 23/76/9
f  34/77/18 33/78/4 36/79/4
f  34/77/18 36/79/4 35/80/18
f  33/78/4 37/81/4 38/82/4
f  33/78/4 38/82/4 39/83/4
f  33/78/4 39/83/4 40/84/4
f  32/85/7 31/86/7 38/87/7
f  32/85/7 38/87/7 37/88/7
f  40/89/9 39/90/9 30/91/9
f  40/89/9 30/91/9 29/92/9
f  27/93/8 32/94/8 37/95/8
f  27/93/8 37/95/8 33/96/8
f  31/97/10 30/98/10 39/99/10
f  31/97/10 39/99/10 38/100/10
f  36/101/8 40/102/8 29/103/8
f  36/101/8 29/103/8 26/104/8
f  23/105/2 25/57/19 28/60/19
f  23/105/2 28/60/19 22/106/2
f  21/107/4 34/77/4 35/80/4
f  21/107/4 35/80/4 24/108/4
f  41/109/2 42/110/2 43/111/2
f  41/109/2 43/111/2 44/112/2
f  45/37/7 44/38/7 43/39/7
f  45/37/7 43/39/7 46/40/7
f  44/113/8 45/42/8 47/43/8
f  44/113/8 47/43/8 41/114/8
f  41/45/9 47/46/9 48/47/9
f  41/45/9 48/47/9 42/48/9
f  46/49/10 43/50/10 48/51/10
f  48/51/10 43/50/10 49/52/11
f  49/52/11 43/50/10 50/53/12
f  43/50/10 42/54/10 50/53/12
f  42/54/10 48/51/10 51/55/13
f  51/55/13 48/51/10 52/56/14
f  48/51/10 49/52/11 52/56/14
f  50/53/12 42/54/10 51/55/13
f  53/57/20 54/58/2 55/59/2
f  53/57/20 55/59/2 56/60/20
f  55/59/2 57/61/2 58/62/2
f  55/59/2 58/62/2 59/63/2
f  59/63/2 60/64/2 55/59/2
f  56/65/21 55/66/7 61/67/7
f  56/65/21 61/67/7 62/68/21
f  63/71/22 64/72/9 54/73/9
f  63/71/22 54/73/9 53/74/22
f  52/75/9 63/71/22 53/74/22
f  52/75/9 53/74/22 51/76/9
f  62/77/23 61/78/4 64/79/4
f  62/77/23 64/79/4 63/80/23
f  61/78/4 65/81/4 66/82/4
f  61/78/4 66/82/4 67/83/4
f  61/78/4 67/83/4 68/84/4
f  60/85/7 59/86/7 66/87/7
f  60/85/7 66/87/7 65/88/7
f  68/89/9 67/90/9 58/91/9
f  68/89/9 58/91/9 57/92/9
f  55/93/8 60/94/8 65/95/8
f  55/93/8 65/95/8 61/96/8
f  59/97/10 58/98/10 67/99/10
f  59/97/10 67/99/10 66/100/10
f  64/101/8 68/102/8 57/103/8
f  64/101/8 57/103/8 54/104/8
f  51/105/2 53/57/2 56/60/2
f  51/105/2 56/60/2 50/106/2
f  50/69/7 56/65/24 62/68/24
f  50/69/7 62/68/24 49/70/7
f  49/107/4 62/77/4 63/80/4
f  49/107/4 63/80/4 52/108/4

