# File produced by Open Asset Import Library (http://www.assimp.sf.net)
# (assimp v3.1.187496374)

mtllib bin_mesh.obj.mtl

# 28 vertex positions
v  -0.463445 1.26987 0.438754
v  0.463445 1.26987 0.438754
v  0.473888 1.40103 0.44864
v  -0.473888 1.40103 0.44864
v  -0.473888 1.40103 -0.44864
v  0.473888 1.40103 -0.44864
v  0.463445 1.26987 -0.438753
v  -0.463445 1.26987 -0.438753
v  0.360174 1.40103 0.340985
v  -0.360174 1.40103 0.340985
v  -0.360174 1.40103 -0.340985
v  0.360174 1.40103 -0.340985
v  0.10155 0.645678 0.0961402
v  -0.10155 0.645678 0.0961402
v  -0.10155 0.645678 -0.0961402
v  0.10155 0.645678 -0.0961402
v  0.386374 0.301873 0.365789
v  -0.386374 0.301873 0.365789
v  -0.115984 0.301873 0.109805
v  0.115984 0.301873 0.109805
v  0.386374 0.301873 -0.365789
v  -0.386374 0.301873 -0.365789
v  -0.115984 0.301873 -0.109805
v  0.115984 0.301873 -0.109805
v  -0.115984 0.00301782 0.109805
v  0.115984 0.00301782 0.109805
v  0.115984 0.00301782 -0.109805
v  -0.115984 0.00301782 -0.109805

# 84 UV coordinates
vt 0.294457 0.267024 0
vt 0.313032 0.267024 0
vt 0.313241 0.269652 0
vt 0.294247 0.269652 0
vt 0.313647 0.247625 0
vt 0.332641 0.247625 0
vt 0.332432 0.250253 0
vt 0.313857 0.250253 0
vt 0.192684 0.15916 0
vt 0.210269 0.15916 0
vt 0.210467 0.161788 0
vt 0.192485 0.161788 0
vt 0.195964 0.181428 0
vt 0.21355 0.181428 0
vt 0.213748 0.184057 0
vt 0.195766 0.184057 0
vt 0.520618 0.347426 0
vt 0.520618 0.249992 0
vt 0.543263 0.27391 0
vt 0.543263 0.323507 0
vt 0.612862 0.249992 0
vt 0.612862 0.347426 0
vt 0.590217 0.323507 0
vt 0.590217 0.27391 0
vt 0.262354 0.281259 0
vt 0.275314 0.281259 0
vt 0.271562 0.301551 0
vt 0.266106 0.301551 0
vt 0.288876 0.301551 0
vt 0.275916 0.301551 0
vt 0.279668 0.281259 0
vt 0.285124 0.281259 0
vt 0.301732 0.306252 0
vt 0.289462 0.306252 0
vt 0.293014 0.285961 0
vt 0.29818 0.285961 0
vt 0.314648 0.306252 0
vt 0.302378 0.306252 0
vt 0.30593 0.285961 0
vt 0.311095 0.285961 0
vt 0.337685 0.303835 0
vt 0.337685 0.298378 0
vt 0.342851 0.298378 0
vt 0.342851 0.303835 0
vt 0.156595 0.150775 0
vt 0.156595 0.170534 0
vt 0.15005 0.16362 0
vt 0.15005 0.157689 0
vt 0.137889 0.150775 0
vt 0.137889 0.170534 0
vt 0.144435 0.16362 0
vt 0.144435 0.157689 0
vt 0.183127 0.186828 0
vt 0.177195 0.186828 0
vt 0.177195 0.179187 0
vt 0.183127 0.179187 0
vt 0.195935 0.179187 0
vt 0.201867 0.179187 0
vt 0.201867 0.186828 0
vt 0.195935 0.186828 0
vt 0.189257 0.186828 0
vt 0.183642 0.186828 0
vt 0.183642 0.179187 0
vt 0.189257 0.179187 0
vt 0.195404 0.186828 0
vt 0.189789 0.186828 0
vt 0.189789 0.179187 0
vt 0.195404 0.179187 0
vt 0.419542 0.261149 0
vt 0.438117 0.261149 0
vt 0.436573 0.280548 0
vt 0.421086 0.280548 0
vt 0.349961 0.270983 0
vt 0.364623 0.270983 0
vt 0.366085 0.290382 0
vt 0.348499 0.290382 0
vt 0.401686 0.25852 0
vt 0.417173 0.25852 0
vt 0.418717 0.277919 0
vt 0.400142 0.277919 0
vt 0.346681 0.248714 0
vt 0.361342 0.248714 0
vt 0.362804 0.268113 0
vt 0.345219 0.268113 0

# 35 vertex normals
vn 0 -0.0751642 0.997171
vn 0 -0.075164 0.997171
vn 0 -0.0751645 -0.997171
vn 0 -0.0751642 -0.997171
vn 0.996845 -0.0793684 -3.31704e-08
vn 0.996845 -0.0793684 -3.31704e-08
vn 0.996845 -0.0793686 -3.1906e-08
vn -0.996845 -0.0793684 -3.31704e-08
vn -0.996845 -0.0793684 -3.31704e-08
vn -0.996845 -0.0793684 -3.1906e-08
vn 0 1 4.9786e-07
vn 0 1 4.9786e-07
vn 0 1 -4.9786e-07
vn 0 1 -4.9786e-07
vn 0 1 0
vn 0 0.308352 -0.951272
vn 0 0.308352 -0.951272
vn 0 0.308352 0.951272
vn 0 0.308352 0.951272
vn 0.946082 0.323928 0
vn 0.946082 0.323928 0
vn -0.946082 0.323928 0
vn -0.946082 0.323928 0
vn 0 -1 1.15876e-07
vn 0 -1 1.15876e-07
vn 0 -1 -1.15876e-07
vn 0 -1 -1.15876e-07
vn 0 0 1
vn 0 0 -1
vn -1 0 0
vn 1 0 0
vn 0 -0.0751641 -0.997171
vn -0.996845 -0.0793684 -3.33783e-08
vn 0 -0.0751642 0.997171
vn 0.996845 -0.0793684 -3.33783e-08

# Mesh 'bin_mesh' with 50 faces
g bin_mesh
usemtl props_material
f  1/1/1 2/2/1 3/3/2
f  1/1/1 3/3/2 4/4/2
f  5/5/3 6/6/3 7/7/4
f  5/5/3 7/7/4 8/8/4
f  2/9/5 7/10/6 6/11/7
f  2/9/5 6/11/7 3/12/7
f  8/13/8 1/14/9 4/15/10
f  8/13/8 4/15/10 5/16/10
f  4/17/11 3/18/11 9/19/12
f  4/17/11 9/19/12 10/20/12
f  6/21/13 5/22/13 11/23/14
f  6/21/13 11/23/14 12/24/14
f  5/22/15 4/17/15 10/20/15
f  5/22/15 10/20/15 11/23/15
f  3/18/15 6/21/15 12/24/15
f  3/18/15 12/24/15 9/19/15
f  10/25/16 9/26/16 13/27/17
f  10/25/16 13/27/17 14/28/17
f  12/29/18 11/30/18 15/31/19
f  12/29/18 15/31/19 16/32/19
f  11/33/20 10/34/20 14/35/21
f  11/33/20 14/35/21 15/36/21
f  9/37/22 12/38/22 16/39/23
f  9/37/22 16/39/23 13/40/23
f  14/41/15 13/42/15 16/43/15
f  14/41/15 16/43/15 15/44/15
f  17/45/24 18/46/24 19/47/25
f  17/45/24 19/47/25 20/48/25
f  21/49/26 17/45/24 20/48/25
f  18/46/24 22/50/26 23/51/27
f  18/46/24 23/51/27 19/47/25
f  22/50/26 21/49/26 24/52/27
f  22/50/26 24/52/27 23/51/27
f  21/49/26 20/48/25 24/52/27
f  20/53/28 19/54/28 25/55/28
f  20/53/28 25/55/28 26/56/28
f  23/57/29 24/58/29 27/59/29
f  23/57/29 27/59/29 28/60/29
f  19/61/30 23/62/30 28/63/30
f  19/61/30 28/63/30 25/64/30
f  24/65/31 20/66/31 26/67/31
f  24/65/31 26/67/31 27/68/31
f  8/69/4 7/70/4 21/71/32
f  8/69/4 21/71/32 22/72/32
f  22/73/33 18/74/33 1/75/9
f  22/73/33 1/75/9 8/76/8
f  18/77/34 17/78/34 2/79/1
f  18/77/34 2/79/1 1/80/1
f  17/81/35 21/82/35 7/83/6
f  17/81/35 7/83/6 2/84/5

