# File produced by Open Asset Import Library (http://www.assimp.sf.net)
# (assimp v3.3.0)

mtllib fence_short_mesh..mtl

# 40 vertex positions
v  -0.4831485748291016 3.563111305236816 0.06665229797363281
v  -0.4831485748291016 -0.001767158508300781 0.06665229797363281
v  -0.3227252960205078 -0.001767158508300781 0.06665229797363281
v  -0.3227252960205078 3.563111305236816 0.06665229797363281
v  -0.4831485748291016 3.563111305236816 -0.06665182113647461
v  -0.3227252960205078 3.563111305236816 -0.06665182113647461
v  -0.3227252960205078 -0.001767277717590332 -0.06665182113647461
v  -0.4831485748291016 -0.001767277717590332 -0.06665182113647461
v  0.4123897552490234 3.563111305236816 0.06665229797363281
v  0.4123897552490234 -0.001767158508300781 0.06665229797363281
v  0.5728130340576172 -0.001767158508300781 0.06665229797363281
v  0.5728130340576172 3.563111305236816 0.06665229797363281
v  0.4123897552490234 3.563111305236816 -0.06665182113647461
v  0.5728130340576172 3.563111305236816 -0.06665182113647461
v  0.5728130340576172 -0.001767277717590332 -0.06665182113647461
v  0.4123897552490234 -0.001767277717590332 -0.06665182113647461
v  -1.384071350097656 3.563111305236816 0.06665229797363281
v  -1.384071350097656 -0.001767158508300781 0.06665229797363281
v  -1.223648071289062 -0.001767158508300781 0.06665229797363281
v  -1.223648071289062 3.563111305236816 0.06665229797363281
v  -1.384071350097656 3.563111305236816 -0.06665182113647461
v  -1.223648071289062 3.563111305236816 -0.06665182113647461
v  -1.223648071289062 -0.001767277717590332 -0.06665182113647461
v  -1.384071350097656 -0.001767277717590332 -0.06665182113647461
v  1.384071350097656 3.082912921905518 0.03520631790161133
v  -1.356388092041016 3.082912921905518 0.03520631790161133
v  -1.356388092041016 3.082912921905518 -0.05684995651245117
v  1.384071350097656 3.082912921905518 -0.05684995651245117
v  1.384071350097656 3.159408092498779 0.03520631790161133
v  1.384071350097656 3.159408092498779 -0.05684995651245117
v  -1.356388092041016 3.159408092498779 -0.05684995651245117
v  -1.356388092041016 3.159408092498779 0.03520631790161133
v  1.384071350097656 0.6520905494689941 0.03520631790161133
v  -1.356388092041016 0.6520905494689941 0.03520631790161133
v  -1.356388092041016 0.6520905494689941 -0.05684995651245117
v  1.384071350097656 0.6520905494689941 -0.05684995651245117
v  1.384071350097656 0.7285858392715454 0.03520631790161133
v  1.384071350097656 0.7285858392715454 -0.05684995651245117
v  -1.356388092041016 0.7285858392715454 -0.05684995651245117
v  -1.356388092041016 0.7285858392715454 0.03520631790161133

# 44 UV coordinates
vt 0.2275658547878265 0.1948593258857727 0
vt 0.2275658547878265 0.1206191778182983 0
vt 0.2318840622901917 0.1206191778182983 0
vt 0.2318840622901917 0.1948593258857727 0
vt 0.2073148787021637 0.1590186953544617 0
vt 0.2096670567989349 0.1590186953544617 0
vt 0.2096670567989349 0.1994584202766418 0
vt 0.2073148787021637 0.1994584202766418 0
vt 0.05790235847234726 0.1978854686021805 0
vt 0.05466421693563461 0.1978854686021805 0
vt 0.05466421693563461 0.1308882683515549 0
vt 0.05790235847234726 0.1308882683515549 0
vt 0.06168820708990097 0.20625139772892 0
vt 0.05845000594854355 0.20625139772892 0
vt 0.05845000594854355 0.1392542272806168 0
vt 0.06168820708990097 0.1392542272806168 0
vt 0.2948116362094879 0.3339098989963531 0
vt 0.2948116362094879 0.2596697509288788 0
vt 0.299129843711853 0.2596697509288788 0
vt 0.299129843711853 0.3339098989963531 0
vt 0.2745606601238251 0.2980692684650421 0
vt 0.2769128382205963 0.2980692684650421 0
vt 0.2769128382205963 0.3385089933872223 0
vt 0.2745606601238251 0.3385089933872223 0
vt 0.1741577684879303 0.3369360566139221 0
vt 0.1709196269512177 0.3369360566139221 0
vt 0.1709196269512177 0.2699388563632965 0
vt 0.1741577684879303 0.2699388563632965 0
vt 0.177943617105484 0.3453019857406616 0
vt 0.1747054159641266 0.3453019857406616 0
vt 0.1747054159641266 0.2783048152923584 0
vt 0.177943617105484 0.2783048152923584 0
vt 0.3547346591949463 0.1760244369506836 0
vt 0.3547346591949463 0.2078330516815186 0
vt 0.3283028602600098 0.2078330516815186 0
vt 0.3283028602600098 0.1760244369506836 0
vt 0.3277939558029175 0.1760244369506836 0
vt 0.3277939558029175 0.2078330516815186 0
vt 0.3013621270656586 0.2078330516815186 0
vt 0.3013621270656586 0.1760244369506836 0
vt 0.3008532226085663 0.1760248839855194 0
vt 0.3008532226085663 0.2078335285186768 0
vt 0.2744213938713074 0.2078335285186768 0
vt 0.2744213938713074 0.1760248839855194 0

# 7 vertex normals
vn 0 0 0.9999999403953552
vn 0 0 -1
vn 1 0 0
vn -1 0 0
vn 0 -1 0
vn 0 1 0
vn 0 0 1

# Mesh 'fence_short_mesh' with 23 faces
g fence_short_mesh
usemtl setexport2013:lambert15
f  1/1/1 2/2/1 3/3/1 4/4/1
f  5/5/2 6/6/2 7/7/2 8/8/2
f  6/9/3 4/10/3 3/11/3 7/12/3
f  8/13/4 2/14/4 1/15/4 5/16/4
f  9/1/1 10/2/1 11/3/1 12/4/1
f  13/5/2 14/6/2 15/7/2 16/8/2
f  14/9/3 12/10/3 11/11/3 15/12/3
f  16/13/4 10/14/4 9/15/4 13/16/4
f  17/1/1 18/2/1 19/3/1 20/4/1
f  21/5/2 22/6/2 23/7/2 24/8/2
f  22/9/3 20/10/3 19/11/3 23/12/3
f  24/13/4 18/14/4 17/15/4 21/16/4
f  25/17/5 26/18/5 27/19/5 28/20/5
f  29/21/6 30/22/6 31/23/6 32/24/6
f  30/25/2 28/26/2 27/27/2 31/28/2
f  32/29/7 26/30/7 25/31/7 29/32/7
f  33/17/5 34/18/5 35/19/5 36/20/5
f  37/21/6 38/22/6 39/23/6 40/24/6
f  38/25/2 36/26/2 35/27/2 39/28/2
f  40/29/7 34/30/7 33/31/7 37/32/7
f  6/33/6 5/34/6 1/35/6 4/36/6
f  14/37/6 13/38/6 9/39/6 12/40/6
f  22/41/6 21/42/6 17/43/6 20/44/6

