# File produced by Open Asset Import Library (http://www.assimp.sf.net)
# (assimp v3.3.0)

mtllib flower_mesh..mtl

# 12 vertex positions
v  -0.08116912841796875 0.02517843991518021 0.07710647583007812
v  0.07979583740234375 0.02517843991518021 0.07710647583007812
v  0.07979583740234375 0.02517843991518021 -0.07823944091796875
v  -0.08116912841796875 0.02517843991518021 -0.07823944091796875
v  -0.2210273742675781 0.02133769541978836 0.2206897735595703
v  0.0290679931640625 0.02133769541978836 0.2206897735595703
v  0.0290679931640625 0.02133769541978836 -0.01419448852539062
v  -0.2210273742675781 0.02133769541978836 -0.01419448852539062
v  -0.03990554809570312 0.02133769541978836 0.02437591552734375
v  0.2210273742675781 0.02133769541978836 0.02437591552734375
v  0.2210273742675781 0.02133769541978836 -0.2206916809082031
v  -0.03990554809570312 0.02133769541978836 -0.2206916809082031

# 8 UV coordinates
vt 0.2968841195106506 0.7919718623161316 0
vt 0.3373931646347046 0.7919718623161316 0
vt 0.3373931646347046 0.8368162512779236 0
vt 0.2968841195106506 0.8368162512779236 0
vt 0.5220991373062134 0.03319388628005981 0
vt 0.5626081228256226 0.03319388628005981 0
vt 0.5626081228256226 0.07803827524185181 0
vt 0.5220991373062134 0.07803827524185181 0

# 2 vertex normals
vn 0 0.9999999403953552 0
vn 0 1 0

# Mesh 'flower_mesh' with 3 faces
g flower_mesh
usemtl setexport2013:lambert15
f  1/1/1 2/2/1 3/3/1 4/4/1
f  5/5/2 6/6/2 7/7/2 8/8/2
f  9/5/2 10/6/2 11/7/2 12/8/2

