# File produced by Open Asset Import Library (http://www.assimp.sf.net)
# (assimp v3.3.0)

mtllib grave_small_mesh..mtl

# 36 vertex positions
v  -0.4535903930664062 1.525015473365784 0.1070842742919922
v  0.455108642578125 1.525015473365784 0.1070842742919922
v  0.455108642578125 1.525015473365784 -0.09439277648925781
v  -0.4535903930664062 1.525015473365784 -0.09439277648925781
v  -0.3670082092285156 1.347508311271667 -0.09439277648925781
v  0.3685264587402344 1.347508311271667 -0.09439277648925781
v  0.3685264587402344 1.290493726730347 -0.09439277648925781
v  -0.3670082092285156 1.290493726730347 -0.09439277648925781
v  -0.4535903930664062 0.1345542967319489 -0.09439277648925781
v  0.455108642578125 0.1345542967319489 -0.09439277648925781
v  0.455108642578125 0.1345542967319489 0.1070842742919922
v  -0.4535903930664062 0.1345542967319489 0.1070842742919922
v  0.455108642578125 1.107877135276794 0.1070842742919922
v  0.455108642578125 1.107877135276794 -0.09439277648925781
v  -0.4535903930664062 1.107877135276794 0.1070842742919922
v  -0.4535903930664062 1.107877135276794 -0.09439277648925781
v  -0.3670082092285156 0.9352290034294128 -0.09439277648925781
v  0.3685264587402344 0.9352290034294128 -0.09439277648925781
v  0.455108642578125 0.5516927242279053 0.1070842742919922
v  0.455108642578125 0.5516926050186157 -0.09439277648925781
v  0.3685264587402344 0.9922435283660889 -0.09439277648925781
v  -0.3670082092285156 0.9922435283660889 -0.09439277648925781
v  -0.4535903930664062 0.5516926050186157 -0.09439277648925781
v  -0.4535903930664062 0.5516926050186157 0.1070842742919922
v  0.3685264587402344 1.108832597732544 -0.09439277648925781
v  -0.3670082092285156 1.108832597732544 -0.09439277648925781
v  0.3685264587402344 1.173904538154602 -0.09439277648925781
v  -0.3670082092285156 1.173904538154602 -0.09439277648925781
v  -0.6945686340332031 0 0.286346435546875
v  0.6945686340332031 0 0.286346435546875
v  0.6945686340332031 0.2051552534103394 0.286346435546875
v  -0.6945686340332031 0.2051552534103394 0.286346435546875
v  0.6945686340332031 0.2051552534103394 -0.286346435546875
v  -0.6945686340332031 0.2051552534103394 -0.286346435546875
v  0.6945686340332031 0 -0.286346435546875
v  -0.6945686340332031 0 -0.286346435546875

# 80 UV coordinates
vt 0.5819504261016846 0.283093124628067 0
vt 0.5708173513412476 0.283093124628067 0
vt 0.5708173513412476 0.2719602286815643 0
vt 0.5819504261016846 0.2719602286815643 0
vt 0.3416236639022827 0.286660373210907 0
vt 0.3304904699325562 0.286660373210907 0
vt 0.3304904699325562 0.2844337821006775 0
vt 0.3416236639022827 0.2844337821006775 0
vt 0.1692629456520081 0.1733200252056122 0
vt 0.1581302583217621 0.1733200252056122 0
vt 0.1581302583217621 0.1621868461370468 0
vt 0.1692629456520081 0.1621868461370468 0
vt 0.190069705247879 0.1620588153600693 0
vt 0.1867298632860184 0.1620588302612305 0
vt 0.1867298632860184 0.1509256213903427 0
vt 0.190069705247879 0.1509256213903427 0
vt 0.1708957850933075 0.1620588302612305 0
vt 0.1675558388233185 0.1620588153600693 0
vt 0.1675558388233185 0.1509256213903427 0
vt 0.1708957850933075 0.1509256213903427 0
vt 0.2980591058731079 0.1845809370279312 0
vt 0.2869259119033813 0.1845809370279312 0
vt 0.2869259119033813 0.1812410652637482 0
vt 0.2869259119033813 0.1823543608188629 0
vt 0.2869259119033813 0.1734480559825897 0
vt 0.2980591058731079 0.1734480559825897 0
vt 0.2980591058731079 0.1812410652637482 0
vt 0.2980591058731079 0.1823543608188629 0
vt 0.1822767406702042 0.1620588302612305 0
vt 0.1789368987083435 0.1620588153600693 0
vt 0.1789368987083435 0.1509256213903427 0
vt 0.1822767406702042 0.1509256213903427 0
vt 0.2869259119033813 0.175674632191658 0
vt 0.2869259119033813 0.1767879128456116 0
vt 0.3416236639022827 0.2777540683746338 0
vt 0.3304904699325562 0.2777540683746338 0
vt 0.3304904699325562 0.2755274772644043 0
vt 0.3416236639022827 0.2755274772644043 0
vt 0.2980591058731079 0.1767879128456116 0
vt 0.2980591058731079 0.175674632191658 0
vt 0.1786890029907227 0.1620588153600693 0
vt 0.1753490567207336 0.1620588302612305 0
vt 0.1753490567207336 0.1509256213903427 0
vt 0.1786890029907227 0.1509256213903427 0
vt 0.2869259119033813 0.1779012084007263 0
vt 0.2980591058731079 0.1779012084007263 0
vt 0.2869259119033813 0.1801277846097946 0
vt 0.3416236639022827 0.2822072207927704 0
vt 0.3304904699325562 0.2822072207927704 0
vt 0.3304904699325562 0.2799806594848633 0
vt 0.3416236639022827 0.2799806594848633 0
vt 0.2980591058731079 0.1801277846097946 0
vt 0.163498729467392 0.3302000761032104 0
vt 0.163498729467392 0.3157384991645813 0
vt 0.2117040157318115 0.3157384991645813 0
vt 0.2117040157318115 0.3302000761032104 0
vt 0.2117040157318115 0.2964563965797424 0
vt 0.163498729467392 0.2964563965797424 0
vt 0.163498729467392 0.2819947898387909 0
vt 0.2117040157318115 0.2819947898387909 0
vt 0.4114183783531189 0.2931137084960938 0
vt 0.415270984172821 0.2931137084960938 0
vt 0.415270984172821 0.2981859743595123 0
vt 0.4114183783531189 0.2981859743595123 0
vt 0.3254818916320801 0.3074511289596558 0
vt 0.3254818916320801 0.2739017009735107 0
vt 0.3347703218460083 0.2739017009735107 0
vt 0.3347703218460083 0.3074511289596558 0
vt 0.4153475165367126 0.2931137084960938 0
vt 0.4192001223564148 0.2931137084960938 0
vt 0.4192001223564148 0.2981859743595123 0
vt 0.4153475165367126 0.2981859743595123 0
vt 0.160423755645752 0.1386715173721313 0
vt 0.1634814143180847 0.1386715173721313 0
vt 0.1634814143180847 0.1532121002674103 0
vt 0.160423755645752 0.1532121002674103 0
vt 0.1631864905357361 0.1533256769180298 0
vt 0.1662441492080688 0.1533256769180298 0
vt 0.1662441492080688 0.1678662300109863 0
vt 0.1631864905357361 0.1678662300109863 0

# 25 vertex normals
vn 0 1 0
vn 0 0 -1
vn 0 -1 0
vn 1 0 0
vn -1 0 0
vn 0 0 -0.9999999403953552
vn -3.527151548610163e-08 0 -1
vn -7.154309145107618e-09 0 -1
vn 3.114030588946548e-09 0 -1
vn 3.577154572553809e-09 0 -1
vn -1.072185824568805e-07 0 -1
vn 1.665318336563359e-07 0 -1
vn 1.814860581816902e-07 0 -1
vn 1.814860723925449e-07 0 -1
vn -3.629721163633803e-07 0 -1
vn -3.386375055924873e-07 0 -1
vn -7.666071155654208e-08 0 -1
vn -3.629721447850898e-07 0 -1
vn -3.606602305694651e-08 0 -1
vn -8.140766993847137e-08 0 -1
vn 2.879323091065089e-08 0 -1
vn 0 0 1
vn -3.145144145122458e-09 0 1
vn 4.193525526829944e-09 0 1
vn 4.193525970919154e-09 0 1

# Mesh 'grave_small_mesh' with 28 faces
g grave_small_mesh
usemtl setexport2013:props_material
f  1/1/1 2/2/1 3/3/1 4/4/1
f  5/5/2 6/6/2 7/7/2 8/8/2
f  9/9/3 10/10/3 11/11/3 12/12/3
f  2/13/4 13/14/4 14/15/4 3/16/4
f  15/17/5 1/18/5 4/19/5 16/20/5
f  4/21/2 3/22/2 6/22/2 5/21/2
f  3/22/6 14/23/7 7/24/8 6/22/6
f  10/25/2 9/26/2 17/26/2 18/25/2
f  16/27/9 4/21/6 5/21/6 8/28/10
f  19/29/4 11/30/4 10/31/4 20/32/4
f  21/33/11 20/34/12 10/25/13 18/25/14
f  22/35/6 21/36/6 18/37/2 17/38/2
f  9/26/15 23/39/16 22/40/17 17/26/18
f  12/41/5 24/42/5 23/43/5 9/44/5
f  25/45/19 20/34/12 21/33/11
f  26/46/2 25/45/2 21/33/6 22/40/6
f  23/39/16 26/46/2 22/40/17
f  13/14/4 19/29/4 20/32/4 14/15/4
f  27/47/20 14/23/7 20/34/12 25/45/19
f  28/48/2 27/49/2 25/50/2 26/51/2
f  23/39/16 16/27/9 28/52/21 26/46/2
f  24/42/5 15/17/5 16/20/5 23/43/5
f  7/24/8 14/23/7 27/47/20
f  8/28/2 7/24/2 27/47/2 28/52/2
f  16/27/9 8/28/10 28/52/21
f  1/53/22 15/54/22 13/55/22 2/56/22
f  19/57/23 13/55/23 15/54/23 24/58/23
f  24/58/24 12/59/25 11/60/25 19/57/25

# Mesh 'grave_small_mesh' with 5 faces
g grave_small_mesh
usemtl setexport2013:lambert15
f  29/61/22 30/62/22 31/63/22 32/64/22
f  32/65/1 31/66/1 33/67/1 34/68/1
f  34/69/2 33/70/2 35/71/2 36/72/2
f  30/73/4 35/74/4 33/75/4 31/76/4
f  36/77/5 29/78/5 32/79/5 34/80/5

