# File produced by Open Asset Import Library (http://www.assimp.sf.net)
# (assimp v3.3.0)

mtllib hydrant_mesh..mtl

# 56 vertex positions
v  -0.340279221534729 -0.003102651331573725 -0.3402783870697021
v  -0.340279221534729 -0.003102651331573725 0.3402794599533081
v  -0.340279221534729 0.1273954808712006 0.3402794599533081
v  -0.340279221534729 0.1273954808712006 -0.3402783870697021
v  -0.08637994527816772 1.510428190231323 -0.0863795280456543
v  -0.08637994527816772 1.510428190231323 0.08638006448745728
v  0.08637966215610504 1.510428190231323 0.08638006448745728
v  0.08637966215610504 1.510428190231323 -0.0863795280456543
v  0.340279221534729 0.1273954808712006 -0.3402783870697021
v  0.340279221534729 0.1273954808712006 0.3402794599533081
v  0.340279221534729 -0.003102651331573725 0.3402794599533081
v  0.340279221534729 -0.003102651331573725 -0.3402783870697021
v  -0.1977109313011169 0.1273954808712006 0.1977105438709259
v  -0.1977109313011169 0.1273954808712006 -0.1977110803127289
v  0.1977109611034393 0.1273954808712006 0.1977105438709259
v  0.1977109611034393 0.1273954808712006 -0.1977110803127289
v  -0.1977109313011169 0.7612569332122803 0.1977105438709259
v  -0.1977109313011169 0.7612569332122803 -0.1977110803127289
v  0.1977109611034393 0.7612569332122803 0.1977105438709259
v  0.1977109611034393 0.7612569332122803 -0.1977110803127289
v  -0.3924615979194641 0.8918594121932983 -0.06874591112136841
v  -0.3924615979194641 0.8918594121932983 0.06874537467956543
v  -0.3924615979194641 1.031096339225769 0.06874537467956543
v  -0.3924615979194641 1.031096339225769 -0.06874591112136841
v  -0.1164054870605469 0.8435947895050049 0.3924612402915955
v  0.1164054870605469 0.8435947895050049 0.3924612402915955
v  0.1164054870605469 1.079360961914062 0.3924612402915955
v  -0.1164054870605469 1.079360961914062 0.3924612402915955
v  0.3924615979194641 0.8918594121932983 0.06874537467956543
v  0.3924615979194641 0.8918594121932983 -0.06874591112136841
v  0.3924615979194641 1.031096339225769 -0.06874591112136841
v  0.3924615979194641 1.031096339225769 0.06874537467956543
v  0.1164054870605469 0.8435947895050049 -0.3924611806869507
v  -0.1164054870605469 0.8435947895050049 -0.3924611806869507
v  -0.1164054870605469 1.079360961914062 -0.3924611806869507
v  0.1164054870605469 1.079360961914062 -0.3924611806869507
v  -0.1977109313011169 1.161698818206787 -0.1977110803127289
v  -0.1977109313011169 1.161698818206787 0.1977105438709259
v  0.1977109611034393 1.161698818206787 0.1977105438709259
v  0.1977109611034393 1.161698818206787 -0.1977110803127289
v  -0.1977109313011169 0.8918594121932983 -0.06874591112136841
v  -0.1977109313011169 0.8918594121932983 0.06874537467956543
v  -0.1977109313011169 1.031096339225769 0.06874537467956543
v  -0.1977109313011169 1.031096339225769 -0.06874591112136841
v  -0.1164054870605469 0.8435947895050049 0.1977105438709259
v  0.1164054870605469 0.8435947895050049 0.1977105438709259
v  0.1164054870605469 1.079360961914062 0.1977105438709259
v  -0.1164054870605469 1.079360961914062 0.1977105438709259
v  0.1977109611034393 0.8918594121932983 0.06874537467956543
v  0.1977109611034393 0.8918594121932983 -0.06874591112136841
v  0.1977109611034393 1.031096339225769 -0.06874591112136841
v  0.1977109611034393 1.031096339225769 0.06874537467956543
v  0.1164054870605469 0.8435947895050049 -0.1977110803127289
v  -0.1164054870605469 0.8435947895050049 -0.1977110803127289
v  -0.1164054870605469 1.079360961914062 -0.1977110803127289
v  0.1164054870605469 1.079360961914062 -0.1977110803127289

# 172 UV coordinates
vt 0.03073466941714287 0.5638942718505859 0
vt 0.03073466941714287 0.5505131483078003 0
vt 0.0369240902364254 0.5505131483078003 0
vt 0.0369240902364254 0.5638942718505859 0
vt 0.02642872929573059 0.7871522307395935 0
vt 0.02642872929573059 0.774295449256897 0
vt 0.03928551077842712 0.774295449256897 0
vt 0.03928551077842712 0.7871522307395935 0
vt 0.02422296069562435 0.5954318046569824 0
vt 0.02422296069562435 0.5820506811141968 0
vt 0.03041236847639084 0.5820506811141968 0
vt 0.03041236847639084 0.5954318046569824 0
vt 0.02972308546304703 0.7191545963287354 0
vt 0.02972308546304703 0.7057734727859497 0
vt 0.04068174213171005 0.7057734727859497 0
vt 0.04068174213171005 0.7191545963287354 0
vt 0.04134275764226913 0.7191545963287354 0
vt 0.04134275764226913 0.7057734727859497 0
vt 0.05230142176151276 0.7057734727859497 0
vt 0.05230142176151276 0.7191545963287354 0
vt 0.02705702185630798 0.7726746797561646 0
vt 0.1050968170166016 0.7726746797561646 0
vt 0.08874845504760742 0.7890231013298035 0
vt 0.04340529441833496 0.7890231013298035 0
vt 0.1050968170166016 0.8507145047187805 0
vt 0.08874845504760742 0.8343661427497864 0
vt 0.02705702185630798 0.8507145047187805 0
vt 0.04340529441833496 0.8343661427497864 0
vt 0.01115183532238007 0.5165144801139832 0
vt 0.01554297097027302 0.5165144801139832 0
vt 0.01554297097027302 0.5816794633865356 0
vt 0.01115183532238007 0.5816794633865356 0
vt 0.03807981684803963 0.6264849901199341 0
vt 0.04585458338260651 0.6264849901199341 0
vt 0.04585458338260651 0.6916499137878418 0
vt 0.03807981684803963 0.6916499137878418 0
vt 0.02507483027875423 0.5816794633865356 0
vt 0.02068366669118404 0.5816794633865356 0
vt 0.02068366669118404 0.5165144801139832 0
vt 0.02507483027875423 0.5165144801139832 0
vt 0.05511957406997681 0.6264849901199341 0
vt 0.06289434432983398 0.6264849901199341 0
vt 0.06289434432983398 0.6916499137878418 0
vt 0.05511957406997681 0.6916499137878418 0
vt 0.05657850578427315 0.6437966227531433 0
vt 0.06096966192126274 0.6437966227531433 0
vt 0.06096966192126274 0.6774240136146545 0
vt 0.05657850578427315 0.6774240136146545 0
vt 0.08974295854568481 0.6264849901199341 0
vt 0.09751772880554199 0.6264849901199341 0
vt 0.09751772880554199 0.6601123809814453 0
vt 0.08974295854568481 0.6601123809814453 0
vt 0.05103851482272148 0.6774240136146545 0
vt 0.04664735868573189 0.6774240136146545 0
vt 0.04664735868573189 0.6437966227531433 0
vt 0.05103851482272148 0.6437966227531433 0
vt 0.09826284646987915 0.6264849901199341 0
vt 0.1060375571250916 0.6264849901199341 0
vt 0.1060375571250916 0.6601123809814453 0
vt 0.09826284646987915 0.6601123809814453 0
vt 0.04364639148116112 0.5360907316207886 0
vt 0.05142110213637352 0.5360907316207886 0
vt 0.0514746867120266 0.5653757452964783 0
vt 0.04359286651015282 0.5653757452964783 0
vt 0.09288334846496582 0.6604835391044617 0
vt 0.100658118724823 0.6604835391044617 0
vt 0.1007116436958313 0.6897685527801514 0
vt 0.09282976388931274 0.6897685527801514 0
vt 0.02606373652815819 0.5653757452964783 0
vt 0.01828893646597862 0.5653757452964783 0
vt 0.01823541149497032 0.5360907912254333 0
vt 0.02611726149916649 0.5360907912254333 0
vt 0.08443087339401245 0.6604835391044617 0
vt 0.09220558404922485 0.6604835391044617 0
vt 0.09225916862487793 0.6897685527801514 0
vt 0.08437734842300415 0.6897685527801514 0
vt 0.03267202898859978 0.6999252438545227 0
vt 0.03267202898859978 0.6656360030174255 0
vt 0.04955993220210075 0.6656360030174255 0
vt 0.04955993220210075 0.6999252438545227 0
vt 0.0332462266087532 0.6521188616752625 0
vt 0.0332462266087532 0.6941993832588196 0
vt 0.02845448069274426 0.6941993832588196 0
vt 0.02845448069274426 0.6521188616752625 0
vt 0.03450264036655426 0.8010997176170349 0
vt 0.03450264036655426 0.8137819170951843 0
vt 0.0282564889639616 0.8137819170951843 0
vt 0.0282564889639616 0.8010997176170349 0
vt 0.03412557393312454 0.6941993832588196 0
vt 0.03412557393312454 0.6521188616752625 0
vt 0.03891724720597267 0.6521188616752625 0
vt 0.03891724720597267 0.6941993832588196 0
vt 0.02765176445245743 0.5542240738868713 0
vt 0.02765176445245743 0.5199348330497742 0
vt 0.03363217040896416 0.5199348330497742 0
vt 0.03363217040896416 0.5542240738868713 0
vt 0.006678599864244461 0.5519468188285828 0
vt 0.006678599864244461 0.5098662972450256 0
vt 0.008375465869903564 0.5098662972450256 0
vt 0.008375465869903564 0.5519468188285828 0
vt 0.08468049764633179 0.8129196763038635 0
vt 0.08468049764633179 0.8002374768257141 0
vt 0.0909266471862793 0.8002374768257141 0
vt 0.0909266471862793 0.8129196763038635 0
vt 0.02603816986083984 0.5519468188285828 0
vt 0.02603816986083984 0.5098662972450256 0
vt 0.02773503586649895 0.5098662972450256 0
vt 0.02773503586649895 0.5519468188285828 0
vt 0.06954686343669891 0.6656360030174255 0
vt 0.06954686343669891 0.6999251246452332 0
vt 0.05265895649790764 0.6999251246452332 0
vt 0.05265895649790764 0.6656360030174255 0
vt 0.04795205965638161 0.694663941860199 0
vt 0.04795205965638161 0.7367444634437561 0
vt 0.04316026344895363 0.7367444634437561 0
vt 0.04316026344895363 0.694663941860199 0
vt 0.05043356120586395 0.8137817978858948 0
vt 0.05043356120586395 0.8010995984077454 0
vt 0.05667971074581146 0.8010995984077454 0
vt 0.05667971074581146 0.8137817978858948 0
vt 0.03765446692705154 0.7367444634437561 0
vt 0.03765446692705154 0.694663941860199 0
vt 0.04244620352983475 0.694663941860199 0
vt 0.04244620352983475 0.7367444634437561 0
vt 0.04071000963449478 0.5199348330497742 0
vt 0.04071000963449478 0.5542240738868713 0
vt 0.03472960367798805 0.5542240738868713 0
vt 0.03472960367798805 0.5199348330497742 0
vt 0.02502670139074326 0.5524113774299622 0
vt 0.02502670139074326 0.5944918990135193 0
vt 0.02332983538508415 0.5944918990135193 0
vt 0.02332983538508415 0.5524113774299622 0
vt 0.09831899404525757 0.8073211312294006 0
vt 0.09831899404525757 0.8200032114982605 0
vt 0.09207284450531006 0.8200032114982605 0
vt 0.09207284450531006 0.8073211312294006 0
vt 0.0103837177157402 0.5098662972450256 0
vt 0.0103837177157402 0.5519468188285828 0
vt 0.008686874061822891 0.5519468188285828 0
vt 0.008686874061822891 0.5098662972450256 0
vt 0.06916584074497223 0.6874510049819946 0
vt 0.06916584074497223 0.66399747133255 0
vt 0.02865603566169739 0.6858934164047241 0
vt 0.02865603566169739 0.6571106314659119 0
vt 0.06720204651355743 0.6803710460662842 0
vt 0.06720204651355743 0.6716965436935425 0
vt 0.06604917347431183 0.6858934164047241 0
vt 0.06604917347431183 0.6571106314659119 0
vt 0.09438791871070862 0.66399747133255 0
vt 0.09438791871070862 0.6874510049819946 0
vt 0.06409551203250885 0.6862112283706665 0
vt 0.06409551203250885 0.7149938941001892 0
vt 0.07653066515922546 0.6765416860580444 0
vt 0.07653066515922546 0.6852161288261414 0
vt 0.03581249713897705 0.6571106314659119 0
vt 0.03581249713897705 0.6858934164047241 0
vt 0.01887784898281097 0.5654320120811462 0
vt 0.01887784898281097 0.5311427712440491 0
vt 0.0194520428776741 0.5176255702972412 0
vt 0.0194520428776741 0.5597060918807983 0
vt 0.0215705931186676 0.539010226726532 0
vt 0.0215705931186676 0.5516924262046814 0
vt 0.02033139020204544 0.5597060918807983 0
vt 0.02033139020204544 0.5176255702972412 0
vt 0.05575267970561981 0.5311427712440491 0
vt 0.05575267970561981 0.5654318928718567 0
vt 0.0341578796505928 0.5601706504821777 0
vt 0.0341578796505928 0.6022511720657349 0
vt 0.03750151395797729 0.5516923069953918 0
vt 0.03750151395797729 0.5390101075172424 0
vt 0.02386028319597244 0.6022511720657349 0
vt 0.02386028319597244 0.5601706504821777 0

# 48 vertex normals
vn -1 0 0
vn 0 1 0
vn 1 0 0
vn 0 0 1
vn 0 0 -1
vn 0 1 -2.428469692006274e-08
vn 0 0.9999999403953552 0
vn 0 1 -2.428483902860989e-08
vn 0 0.9999999403953552 -2.428469692006274e-08
vn -0.9999999403953552 3.288937344692044e-09 0
vn 3.34112337796455e-09 0 1
vn -3.34112248978613e-09 0 1
vn 0.9999999403953552 -3.288937344692044e-09 0
vn -3.34112248978613e-09 0 -1
vn 3.34112337796455e-09 0 -1
vn -0.9760570526123047 0.2175145596265793 0
vn -0.9760570526123047 0.2175146639347076 0
vn -0.9526320099830627 0.3041254878044128 0
vn -0.9526320099830627 0.3041255176067352 0
vn -8.446784605098401e-09 0.2348257899284363 0.9720375537872314
vn 8.446790822347339e-09 0.2348256856203079 0.9720374941825867
vn 0 0.3041241466999054 0.9526324272155762
vn 0 0.3041241765022278 0.9526323676109314
vn 0.9760569334030151 0.2175151705741882 0
vn 0.9760569930076599 0.2175150811672211 0
vn 0.9526318311691284 0.3041261732578278 0
vn 0.9526318311691284 0.3041261434555054 0
vn 8.446784605098401e-09 0.2348278760910034 -0.9720370173454285
vn -8.446776611492623e-09 0.2348278760910034 -0.9720368981361389
vn 0 0.3041268587112427 -0.9526315331459045
vn 0 0.3041268289089203 -0.9526315331459045
vn 0 -1 0
vn 3.61053729136529e-08 0 1
vn -3.610538712450762e-08 0 1
vn 3.610536580822554e-08 0 1
vn -3.610537646636658e-08 0 1
vn -3.610539778264865e-08 0 -1
vn 3.610538712450762e-08 0 -1
vn -3.610537646636658e-08 0 -1
vn 3.610536580822554e-08 0 -1
vn -1 2.669058574156224e-08 0
vn -1 2.66905928469896e-08 0
vn -1 -2.669058574156224e-08 0
vn -1 -2.66905928469896e-08 0
vn 1 -2.66905928469896e-08 0
vn 1 -2.669058574156224e-08 0
vn 1 2.66905928469896e-08 0
vn 1 2.669058574156224e-08 0

# Mesh 'hydrant_mesh' with 53 faces
g hydrant_mesh
usemtl props_material
f  1/1/1 2/2/1 3/3/1 4/4/1
f  5/5/2 6/6/2 7/7/2 8/8/2
f  9/9/3 10/10/3 11/11/3 12/12/3
f  2/13/4 11/14/4 10/15/4 3/16/4
f  12/17/5 1/18/5 4/19/5 9/20/5
f  4/21/6 3/22/7 13/23/2 14/24/8
f  3/22/7 10/25/2 15/26/2 13/23/2
f  10/25/2 9/27/9 16/28/8 15/26/2
f  9/27/9 4/21/6 14/24/8 16/28/8
f  14/29/1 13/30/1 17/31/10 18/32/10
f  13/33/4 15/34/4 19/35/11 17/36/12
f  15/37/3 16/38/3 20/39/13 19/40/13
f  16/41/5 14/42/5 18/43/14 20/44/15
f  21/45/1 22/46/1 23/47/1 24/48/1
f  25/49/4 26/50/4 27/51/4 28/52/4
f  29/53/3 30/54/3 31/55/3 32/56/3
f  33/57/5 34/58/5 35/59/5 36/60/5
f  37/61/16 38/62/17 6/63/18 5/64/19
f  38/65/20 39/66/21 7/67/22 6/68/23
f  39/69/24 40/70/25 8/71/26 7/72/27
f  40/73/28 37/74/29 5/75/30 8/76/31
f  41/77/32 42/78/32 22/79/32 21/80/32
f  42/81/4 43/82/4 23/83/4 22/84/4
f  43/85/2 44/86/2 24/87/2 23/88/2
f  44/89/5 41/90/5 21/91/5 24/92/5
f  45/93/32 46/94/32 26/95/32 25/96/32
f  46/97/3 47/98/3 27/99/3 26/100/3
f  47/101/2 48/102/2 28/103/2 27/104/2
f  48/105/1 45/106/1 25/107/1 28/108/1
f  49/109/32 50/110/32 30/111/32 29/112/32
f  50/113/5 51/114/5 31/115/5 30/116/5
f  51/117/2 52/118/2 32/119/2 31/120/2
f  52/121/4 49/122/4 29/123/4 32/124/4
f  53/125/32 54/126/32 34/127/32 33/128/32
f  54/129/1 55/130/1 35/131/1 34/132/1
f  55/133/2 56/134/2 36/135/2 35/136/2
f  56/137/3 53/138/3 33/139/3 36/140/3
f  17/141/12 19/142/11 46/142/33 45/141/34
f  19/143/11 39/144/21 47/144/35 46/143/33
f  39/145/21 38/146/20 48/146/36 47/145/35
f  38/147/20 17/148/12 45/148/34 48/147/36
f  20/149/15 18/150/14 54/150/37 53/149/38
f  18/151/14 37/152/29 55/152/39 54/151/37
f  37/153/29 40/154/28 56/154/40 55/153/39
f  40/155/28 20/156/15 53/156/38 56/155/40
f  18/157/10 17/158/10 42/158/41 41/157/42
f  17/159/10 38/160/17 43/160/43 42/159/41
f  38/161/17 37/162/16 44/162/44 43/161/43
f  37/163/16 18/164/10 41/164/42 44/163/44
f  19/165/13 20/166/13 50/166/45 49/165/46
f  20/167/13 40/168/25 51/168/47 50/167/45
f  40/169/25 39/170/24 52/170/48 51/169/47
f  39/171/24 19/172/13 49/172/46 52/171/48

