# File produced by Open Asset Import Library (http://www.assimp.sf.net)
# (assimp v3.3.0)

mtllib lamp_mesh..mtl

# 52 vertex positions
v  -0.3938764333724976 0.2561595439910889 1.7505202293396
v  0.3938764333724976 0.2561595439910889 1.7505202293396
v  0.3938764333724976 2.488787651062012 1.7505202293396
v  -0.3938764333724976 2.488787651062012 1.7505202293396
v  -0.1445463895797729 8.550313949584961 1.514473915100098
v  0.1445463895797729 8.550313949584961 1.514473915100098
v  0.1445463895797729 8.550313949584961 1.240782976150513
v  -0.1445463895797729 8.550313949584961 1.240782976150513
v  -0.3938764333724976 2.488787651062012 1.004736661911011
v  0.3938764333724976 2.488787651062012 1.004736661911011
v  0.3938764333724976 0.2561595439910889 1.004736661911011
v  -0.3938764333724976 0.2561595439910889 1.004736661911011
v  0.1445463895797729 2.488787651062012 1.514473915100098
v  -0.1445463895797729 2.488787651062012 1.514473915100098
v  0.1445463895797729 2.488787651062012 1.240782976150513
v  -0.1445463895797729 2.488787651062012 1.240782976150513
v  0.1445463895797729 7.698175430297852 1.514473915100098
v  -0.1445463895797729 7.698175430297852 1.514473915100098
v  0.1445463895797729 7.698175430297852 1.240782976150513
v  -0.1445463895797729 7.698175430297852 1.240782976150513
v  0.1445463895797729 8.13548469543457 1.514473915100098
v  0.1445463895797729 8.13548469543457 1.240782976150513
v  -0.1445463895797729 8.13548469543457 1.514473915100098
v  -0.1445463895797729 8.13548469543457 1.240782976150513
v  0.08065997064113617 7.995889663696289 1.251344680786133
v  -0.08065997064113617 7.995889663696289 1.251344680786133
v  0.08065997064113617 7.837769508361816 1.251344680786133
v  -0.08065997064113617 7.837769508361816 1.251344680786133
v  0.08065997064113617 7.995889663696289 -0.9573442935943604
v  -0.08065997064113617 7.995889663696289 -0.9573442935943604
v  0.08065997064113617 7.837769508361816 -0.9573442935943604
v  -0.08065997064113617 7.837769508361816 -0.9573442935943604
v  0.08065997064113617 7.995889663696289 -1.902945041656494
v  -0.08065997064113617 7.995889663696289 -1.902945041656494
v  0.2708702087402344 7.995889663696289 -0.9573442935943604
v  0.2708702087402344 7.837769508361816 -0.9573442935943604
v  0.2708702087402344 7.837769508361816 -1.902945041656494
v  0.2708702087402344 7.995889663696289 -1.902945041656494
v  -0.2708702087402344 7.837769508361816 -0.9573442935943604
v  -0.2708702087402344 7.995889663696289 -0.9573442935943604
v  -0.2708702087402344 7.995889663696289 -1.902945041656494
v  -0.2708702087402344 7.837769508361816 -1.902945041656494
v  -0.08065997064113617 7.837769508361816 -1.902945041656494
v  0.08065997064113617 7.837769508361816 -1.902945041656494
v  -0.5548795461654663 0.2561595439910889 0.8523114919662476
v  0.5548795461654663 0.2561595439910889 0.8523114919662476
v  0.5548795461654663 -0.002671944908797741 0.8523114919662476
v  -0.5548795461654663 -0.002671944908797741 0.8523114919662476
v  0.5548795461654663 0.2561595439910889 1.902945041656494
v  0.5548795461654663 -0.002671944908797741 1.902945041656494
v  -0.5548795461654663 0.2561595439910889 1.902945041656494
v  -0.5548795461654663 -0.002671944908797741 1.902945041656494

# 140 UV coordinates
vt 0.4353901147842407 0.332810640335083 0
vt 0.4254335761070251 0.332810640335083 0
vt 0.4254335761070251 0.3066704869270325 0
vt 0.4353901147842407 0.3066704869270325 0
vt 0.5577960610389709 0.3238803744316101 0
vt 0.5577960610389709 0.2787159085273743 0
vt 0.600554347038269 0.2787159085273743 0
vt 0.600554347038269 0.3238803744316101 0
vt 0.4049434065818787 0.332810640335083 0
vt 0.3949868679046631 0.332810640335083 0
vt 0.3949868679046631 0.3066704571247101 0
vt 0.4049434065818787 0.3066704571247101 0
vt 0.300726056098938 0.332810640335083 0
vt 0.291299968957901 0.332810640335083 0
vt 0.291299968957901 0.3066704869270325 0
vt 0.300726056098938 0.3066704869270325 0
vt 0.290781170129776 0.332810640335083 0
vt 0.2813550233840942 0.332810640335083 0
vt 0.2813550233840942 0.3066704869270325 0
vt 0.290781170129776 0.3066704869270325 0
vt 0.5439445376396179 0.3008716404438019 0
vt 0.5439445376396179 0.2886756062507629 0
vt 0.5475989580154419 0.2925357818603516 0
vt 0.5475989580154419 0.2970114946365356 0
vt 0.5554906725883484 0.2886756062507629 0
vt 0.5518363118171692 0.2925357818603516 0
vt 0.5554906725883484 0.3008716404438019 0
vt 0.5518363118171692 0.2970114946365356 0
vt 0.4675198197364807 0.332810640335083 0
vt 0.4638659358024597 0.332810640335083 0
vt 0.4638659358024597 0.2669682502746582 0
vt 0.4675198197364807 0.2669682502746582 0
vt 0.3391286730766296 0.332810640335083 0
vt 0.3356694579124451 0.332810640335083 0
vt 0.3356694579124451 0.2669682502746582 0
vt 0.3391286730766296 0.2669682502746582 0
vt 0.4680122137069702 0.2561978697776794 0
vt 0.4716660976409912 0.2561978697776794 0
vt 0.4716660976409912 0.3220403790473938 0
vt 0.4680122137069702 0.3220403790473938 0
vt 0.3351507782936096 0.332810640335083 0
vt 0.331691563129425 0.332810640335083 0
vt 0.331691563129425 0.2669682502746582 0
vt 0.3351507782936096 0.2669682502746582 0
vt 0.3391286730766296 0.2614409923553467 0
vt 0.3356694579124451 0.2614409923553467 0
vt 0.3356694579124451 0.2561979293823242 0
vt 0.3391286730766296 0.2561979293823242 0
vt 0.4675198197364807 0.2614409923553467 0
vt 0.4638659358024597 0.2614409923553467 0
vt 0.4638659358024597 0.2561979293823242 0
vt 0.4675198197364807 0.2561979293823242 0
vt 0.3351507782936096 0.2614409923553467 0
vt 0.331691563129425 0.2614409923553467 0
vt 0.331691563129425 0.2561979293823242 0
vt 0.3351507782936096 0.2561979293823242 0
vt 0.4680122137069702 0.3275675475597382 0
vt 0.4716660976409912 0.3275675475597382 0
vt 0.4716660976409912 0.332810640335083 0
vt 0.4680122137069702 0.332810640335083 0
vt 0.4688196778297424 0.3258031904697418 0
vt 0.470858633518219 0.3258031904697418 0
vt 0.4688196778297424 0.3238047063350677 0
vt 0.470858633518219 0.3238047063350677 0
vt 0.5809215307235718 0.3046044707298279 0
vt 0.5788825750350952 0.3046044707298279 0
vt 0.5788825750350952 0.2766885161399841 0
vt 0.5809215307235718 0.2766885161399841 0
vt 0.3118853867053986 0.3048946857452393 0
vt 0.3138839304447174 0.3048946857452393 0
vt 0.3138839304447174 0.332810640335083 0
vt 0.3118853867053986 0.332810640335083 0
vt 0.3164849281311035 0.332810640335083 0
vt 0.3144863843917847 0.332810640335083 0
vt 0.3144863843917847 0.3048946261405945 0
vt 0.3164849281311035 0.3048946261405945 0
vt 0.3267297148704529 0.292943000793457 0
vt 0.3287686705589294 0.292943000793457 0
vt 0.3287686705589294 0.3208590149879456 0
vt 0.3267297148704529 0.3208590149879456 0
vt 0.5788825750350952 0.2647368311882019 0
vt 0.5809215307235718 0.2647368311882019 0
vt 0.3119025230407715 0.2926296591758728 0
vt 0.3139010667800903 0.2926296591758728 0
vt 0.3139010667800903 0.3045812845230103 0
vt 0.3119025230407715 0.3045812845230103 0
vt 0.3163812160491943 0.3045812845230103 0
vt 0.3143827021121979 0.3045812845230103 0
vt 0.3143827021121979 0.2926296591758728 0
vt 0.3163812160491943 0.2926296591758728 0
vt 0.3287686705589294 0.332810640335083 0
vt 0.3267297148704529 0.332810640335083 0
vt 0.4338005185127258 0.295442521572113 0
vt 0.4090976715087891 0.295442521572113 0
vt 0.4090976715087891 0.2657265067100525 0
vt 0.4338005185127258 0.2657265067100525 0
vt 0.3243256211280823 0.332810640335083 0
vt 0.3243256211280823 0.3208590149879456 0
vt 0.4508777856826782 0.2902255654335022 0
vt 0.4528762698173523 0.2902255654335022 0
vt 0.4528762698173523 0.2926296591758728 0
vt 0.4508777856826782 0.2926296591758728 0
vt 0.5764784812927246 0.2766885161399841 0
vt 0.5764784812927246 0.2647368311882019 0
vt 0.4397538304328918 0.2657265067100525 0
vt 0.4644566774368286 0.2657265067100525 0
vt 0.4644566774368286 0.2954426407814026 0
vt 0.4397538304328918 0.2954426407814026 0
vt 0.5833256840705872 0.2647368311882019 0
vt 0.5833256840705872 0.2766885161399841 0
vt 0.4528762698173523 0.2881866097450256 0
vt 0.4508777856826782 0.2881866097450256 0
vt 0.4508777856826782 0.285782516002655 0
vt 0.4528762698173523 0.285782516002655 0
vt 0.3311728239059448 0.3208590149879456 0
vt 0.3311728239059448 0.332810640335083 0
vt 0.468433678150177 0.318635880947113 0
vt 0.468433678150177 0.287036657333374 0
vt 0.4751295447349548 0.287036657333374 0
vt 0.4751295447349548 0.318635880947113 0
vt 0.2793293297290802 0.2870366275310516 0
vt 0.2793293297290802 0.3169523179531097 0
vt 0.2726336121559143 0.3169523179531097 0
vt 0.2726336121559143 0.2870366275310516 0
vt 0.4111180901527405 0.2870366275310516 0
vt 0.4111180901527405 0.3186358511447906 0
vt 0.4044222831726074 0.3186358511447906 0
vt 0.4044222831726074 0.2870366275310516 0
vt 0.2716478109359741 0.2870366275310516 0
vt 0.2716478109359741 0.3169523179531097 0
vt 0.2649519443511963 0.3169523179531097 0
vt 0.2649519443511963 0.2870366275310516 0
vt 0.6067103147506714 0.2865492105484009 0
vt 0.6067103147506714 0.2743532061576843 0
vt 0.6090701818466187 0.2718605101108551 0
vt 0.6090701818466187 0.2890418469905853 0
vt 0.5951641201972961 0.2743532061576843 0
vt 0.5928042531013489 0.2718605101108551 0
vt 0.5951641201972961 0.2865492105484009 0
vt 0.5928042531013489 0.2890418469905853 0

# 27 vertex normals
vn 0 0 1
vn 0 0.9999999403953552 0
vn 0 0 -1
vn 1 0 0
vn -1 0 0
vn 0 1 0
vn 0.9999999403953552 0 0
vn 0.0005667286459356546 0.001127858529798687 -0.9999992251396179
vn -0.0005667286459356546 0.001127858529798687 -0.9999992251396179
vn -0.9999999403953552 0 0
vn -0.005871928762644529 -0.01168596185743809 -0.9999144077301025
vn 0.005871928762644529 -0.01168596185743809 -0.9999144077301025
vn -0.0741860419511795 -0.0414346344769001 -0.9963832497596741
vn 0.0741860419511795 -0.0414346344769001 -0.9963832497596741
vn -0.07418625056743622 0.04143480956554413 -0.9963831901550293
vn 0.07418625056743622 0.04143480956554413 -0.9963831901550293
vn 0 -1 0
vn 0 0 0.9999999403953552
vn 0 0 -0.9999999403953552
vn 0 0.9999999403953552 -1.302965202398809e-08
vn 0 1 -1.302965468852335e-08
vn 0 0.9999999403953552 -1.243137681683493e-08
vn 0 1 -1.243137504047809e-08
vn 0 1 1.30296795575191e-08
vn 0 1 1.243137148776441e-08
vn 0 1 1.302967778116226e-08
vn 0 0.9999999403953552 1.243136882322915e-08

# Mesh 'lamp_mesh' with 49 faces
g lamp_mesh
usemtl props_material
f  1/1/1 2/2/1 3/3/1 4/4/1
f  5/5/2 6/6/2 7/7/2 8/8/2
f  9/9/3 10/10/3 11/11/3 12/12/3
f  2/13/4 11/14/4 10/15/4 3/16/4
f  12/17/5 1/18/5 4/19/5 9/20/5
f  4/21/2 3/22/2 13/23/6 14/24/6
f  3/22/2 10/25/2 15/26/6 13/23/6
f  10/25/2 9/27/2 16/28/6 15/26/6
f  9/27/2 4/21/2 14/24/6 16/28/6
f  14/29/1 13/30/1 17/31/1 18/32/1
f  13/33/4 15/34/4 19/35/7 17/36/7
f  15/37/3 16/38/3 20/39/8 19/40/9
f  16/41/5 14/42/5 18/43/10 20/44/10
f  21/45/4 22/46/4 7/47/4 6/48/4
f  23/49/1 21/50/1 6/51/1 5/52/1
f  24/53/5 23/54/5 5/55/5 8/56/5
f  22/57/11 24/58/12 8/59/3 7/60/3
f  17/36/7 19/35/7 22/46/4 21/45/4
f  18/32/1 17/31/1 21/50/1 23/49/1
f  20/44/10 18/43/10 23/54/5 24/53/5
f  24/58/12 22/57/11 25/61/13 26/62/14
f  22/57/11 19/40/9 27/63/15 25/61/13
f  20/39/8 24/58/12 26/62/14 28/64/16
f  19/40/9 20/39/8 28/64/16 27/63/15
f  26/65/6 25/66/6 29/67/6 30/68/6
f  25/69/4 27/70/4 31/71/4 29/72/4
f  28/73/5 26/74/5 30/75/5 32/76/5
f  27/77/17 28/78/17 32/79/17 31/80/17
f  30/68/6 29/67/6 33/81/6 34/82/6
f  35/83/4 36/84/4 37/85/4 38/86/4
f  39/87/5 40/88/5 41/89/5 42/90/5
f  31/80/17 32/79/17 43/91/17 44/92/17
f  29/93/18 31/94/18 36/95/18 35/96/18
f  31/80/17 44/92/17 37/97/17 36/98/17
f  44/99/3 33/100/3 38/101/19 37/102/19
f  33/81/6 29/67/6 35/103/6 38/104/6
f  32/105/18 30/106/18 40/107/18 39/108/18
f  30/68/6 34/82/6 41/109/6 40/110/6
f  34/111/3 43/112/3 42/113/19 41/114/19
f  43/91/17 32/79/17 39/115/17 42/116/17
f  43/112/3 34/111/3 33/100/3 44/99/3
f  45/117/3 46/118/3 47/119/3 48/120/3
f  46/121/4 49/122/4 50/123/4 47/124/4
f  49/125/1 51/126/1 52/127/1 50/128/1
f  51/129/5 45/130/5 48/131/5 52/132/5
f  12/133/20 11/134/21 46/135/22 45/136/23
f  11/134/21 2/137/24 49/138/25 46/135/22
f  2/137/24 1/139/26 51/140/27 49/138/25
f  1/139/26 12/133/20 45/136/23 51/140/27

