# File produced by Open Asset Import Library (http://www.assimp.sf.net)
# (assimp v3.3.0)

mtllib road_t_mesh..mtl

# 63 vertex positions
v  -9.745072364807129 0.1947957873344421 -14.61760807037354
v  -6.94908618927002 0.1947957873344421 -11.82162284851074
v  -6.94908618927002 0.1947957873344421 -14.61761093139648
v  -6.94908618927002 3.954577821891486e-13 -11.82162284851074
v  -6.94908618927002 3.954577821891486e-13 -14.61761093139648
v  -6.660442352294922 3.956191114724145e-13 -14.61761093139648
v  -6.66044282913208 3.956191114724145e-13 -11.53297996520996
v  9.5367431640625e-07 3.957804678607346e-13 -14.61761093139648
v  0 3.957804678607346e-13 -4.872536659240723
v  -9.745070457458496 0.1947957873344421 -11.82162284851074
v  -9.745070457458496 3.954577821891486e-13 -11.82162284851074
v  -9.745070457458496 3.956191114724145e-13 -11.53297710418701
v  -9.745070457458496 3.957804678607346e-13 -4.872531890869141
v  9.745071411132812 0.1947957873344421 -14.61760902404785
v  6.949085712432861 0.1947957873344421 -11.82162284851074
v  9.745074272155762 0.1947957873344421 -11.82162284851074
v  6.949085712432861 3.954577821891486e-13 -11.82162284851074
v  9.745074272155762 3.954577821891486e-13 -11.82162284851074
v  9.745074272155762 3.956191114724145e-13 -11.53297901153564
v  6.66044282913208 3.956191114724145e-13 -11.53297996520996
v  9.745074272155762 3.957804678607346e-13 -4.872535705566406
v  6.949085712432861 0.1947957873344421 -14.61760711669922
v  6.949085712432861 3.954577821891486e-13 -14.61760711669922
v  6.660440444946289 3.956191114724145e-13 -14.61760711669922
v  -4.76837158203125e-06 3.957804678607346e-13 -14.61760711669922
v  -9.745070457458496 3.956770891835881e-13 1.787906885147095
v  -5.591971397399902 3.956770891835881e-13 1.787906885147095
v  0 3.958384726769626e-13 -4.872536659240723
v  -9.745070457458496 3.958384726769626e-13 -4.872536659240723
v  -5.591971397399902 3.955157599003223e-13 2.076550483703613
v  -9.745070457458496 3.955157599003223e-13 2.076550483703613
v  -9.745070457458496 0.1947957873344421 2.076550483703613
v  -5.591971397399902 0.1947957873344421 2.076550483703613
v  -5.591971397399902 0.1947957873344421 4.872536659240723
v  -9.745070457458496 0.1947957873344421 4.872536659240723
v  -2.795985698699951 0.1947957873344421 4.872536659240723
v  -2.795985698699951 0.1947957873344421 2.076550483703613
v  -2.795985698699951 3.955157599003223e-13 2.076550483703613
v  -2.795985698699951 3.956770891835881e-13 1.787906885147095
v  2.795985698699951 3.956770891835881e-13 1.787906885147095
v  5.591971397399902 3.956770891835881e-13 1.787906885147095
v  5.591971397399902 3.955157599003223e-13 2.076550483703613
v  2.795985698699951 3.955157599003223e-13 2.076550483703613
v  2.795985698699951 0.1947957873344421 2.076550483703613
v  5.591971397399902 0.1947957873344421 2.076550483703613
v  5.591971397399902 0.1947957873344421 4.872536659240723
v  2.795985698699951 0.1947957873344421 4.872536659240723
v  9.745074272155762 0.1947957873344421 4.872536659240723
v  9.745074272155762 0.1947957873344421 2.076550483703613
v  9.745074272155762 3.955157599003223e-13 2.076550483703613
v  9.745074272155762 3.956770891835881e-13 1.787906885147095
v  9.745074272155762 3.958384726769626e-13 -4.872536659240723
v  0 3.956770891835881e-13 1.787906885147095
v  0 3.955157599003223e-13 2.076550483703613
v  0 0.1947957873344421 2.076550483703613
v  -1.788139343261719e-07 0.194795548915863 4.872536659240723
v  -9.745070457458496 1.788139343261719e-07 4.872536659240723
v  -5.591971397399902 1.788139343261719e-07 4.872536659240723
v  -2.795985698699951 1.788139343261719e-07 4.872536659240723
v  2.795985698699951 1.788139343261719e-07 4.872536659240723
v  5.591971397399902 1.788139343261719e-07 4.872536659240723
v  9.745074272155762 1.788139343261719e-07 4.872536659240723
v  -1.788139343261719e-07 -5.960464477539062e-08 4.872536659240723

# 34 UV coordinates
vt 0.01036548055708408 1.788139343261719e-07 0
vt 0.3178973793983459 1.788139343261719e-07 0
vt 0.3178973793983459 0.2375465333461761 0
vt 0.3410730957984924 1.788139343261719e-07 0
vt 0.3410731256008148 0.238381415605545 0
vt 0.3754143714904785 0.2500001490116119 0
vt 0.3754143416881561 1.788139343261719e-07 0
vt 0.8626353144645691 0.8136229515075684 0
vt 0.50894695520401 0.8136229515075684 0
vt 0.50894695520401 0.9139539003372192 0
vt 0.8626353144645691 0.9139539003372192 0
vt 0.3754144608974457 1 0
vt 0.3754144012928009 0.5147037506103516 0
vt 0.9417212009429932 0.5147037506103516 0
vt 0.9417212009429932 1 0
vt 0.3410731554031372 0.5147037506103516 0
vt 0.341073215007782 1 0
vt 0.3178973793983459 1 0
vt 0.3178973793983459 0.5014050006866455 0
vt 0.01036548055708408 0.5014050006866455 0
vt 0.01036548055708408 1 0
vt 0.3410731256008148 1 0
vt 0.3754143714904785 1 0
vt 0.9417212009429932 0.7573518753051758 0
vt 0.9413356781005859 0.7573518753051758 0
vt 0.9413356781005859 0.5147037506103516 0
vt 0.9413356781005859 1 0
vt 0.9414898753166199 0.5147037506103516 0
vt 0.9414898753166199 1 0
vt 0.9414898753166199 0.7573518753051758 0
vt 0.3333466649055481 0.6105282306671143 0
vt 0.3282468914985657 0.6105282306671143 0
vt 0.3282468914985657 0.6054285168647766 0
vt 0.3333466649055481 0.6054285168647766 0

# 33 vertex normals
vn 2.670072163368786e-09 1 -1.185750237273092e-24
vn 5.340144326737573e-09 1 -2.371500474546183e-24
vn 1 0 -1.094372521492915e-07
vn -2.915935008422366e-16 1 -9.292909653400617e-25
vn -5.589632358215396e-16 1 2.482295417312217e-31
vn -2.794816179107698e-16 1 -2.794605744359864e-16
vn -1.457973856958288e-16 1 -1.457867977839881e-16
vn -2.422377744346228e-17 1 -1.85858212789535e-24
vn -1.211315761679079e-17 1 -1.211303188533769e-17
vn 0 1 0
vn 4.440892098500626e-16 0 1
vn -1.268792166950755e-21 1 -2.915735955679762e-16
vn -2.482108513710437e-31 1 -5.589211488719729e-16
vn -2.537584535849901e-21 1 -2.42260654250366e-17
vn -3.884240262351079e-24 1 2.670072163368786e-09
vn -7.768480524702157e-24 1 5.340144326737573e-09
vn 1.094372521492915e-07 0 1
vn 9.292914583781275e-25 1 -2.915935008422366e-16
vn 8.131418224920489e-31 1 -5.589632358215396e-16
vn 2.794605744359864e-16 1 -2.794816179107698e-16
vn 1.457867977839881e-16 1 -1.457973856958288e-16
vn 1.85858212789535e-24 1 -2.422377744346228e-17
vn 1.211303188533769e-17 1 -1.211315761679079e-17
vn -1 0 -1.454732288338925e-15
vn 2.915735955679762e-16 1 -1.268792166950755e-21
vn 5.589211488719729e-16 1 8.130806027462581e-31
vn 2.42260654250366e-17 1 -2.537584535849901e-21
vn 0 1 2.915479728213217e-16
vn 0 1 2.42311658206936e-17
vn 0 0 -1
vn 0 1 5.588647682414213e-16
vn 0 0 1
vn 0 0 0.9999999403953552

# Mesh 'road_t_mesh' with 46 faces
g road_t_mesh
usemtl lambert49
f  1/1/1 2/2/1 3/3/2
f  4/4/3 5/5/3 3/3/3 2/2/3
f  6/6/4 5/5/5 4/4/6 7/7/7
f  8/8/8 6/9/4 7/10/7 9/11/9
f  1/1/1 10/3/10 2/2/1
f  4/4/11 2/2/11 10/3/11 11/5/11
f  12/6/12 7/7/7 4/4/6 11/5/13
f  13/8/14 9/11/9 7/10/7 12/9/12
f  14/1/15 15/2/15 16/3/16
f  17/4/17 18/5/17 16/3/17 15/2/17
f  19/6/18 18/5/19 17/4/20 20/7/21
f  21/8/22 19/9/18 20/10/21 9/11/23
f  14/1/15 22/3/10 15/2/15
f  17/4/24 15/2/24 22/3/24 23/5/24
f  24/6/25 20/7/21 17/4/20 23/5/26
f  25/8/27 9/11/23 20/10/21 24/9/25
f  26/12/28 27/13/28 28/14/29 29/15/29
f  30/16/30 31/17/30 32/18/30 33/19/30
f  34/20/10 33/19/10 32/18/10 35/21/10
f  31/17/31 30/16/31 27/13/28 26/12/28
f  36/21/10 37/18/10 33/19/10 34/20/10
f  38/22/30 30/16/30 33/19/30 37/18/30
f  27/13/28 30/16/31 38/22/31 39/23/28
f  28/24/29 27/13/28 39/23/28
f  40/12/28 41/13/28 28/25/29
f  42/16/30 43/17/30 44/18/30 45/19/30
f  46/20/10 45/19/10 44/18/10 47/21/10
f  43/17/31 42/16/31 41/13/28 40/12/28
f  48/21/10 49/18/10 45/19/10 46/20/10
f  50/22/30 42/16/30 45/19/30 49/18/30
f  41/13/28 42/16/31 50/22/31 51/23/28
f  28/26/29 41/13/28 51/23/28 52/27/29
f  39/12/28 53/13/28 28/28/29 28/29/29
f  54/16/30 38/17/30 37/18/30 55/19/30
f  56/20/10 55/19/10 37/18/10 36/21/10
f  38/17/31 54/16/31 53/13/28 39/12/28
f  47/21/10 44/18/10 55/19/10 56/20/10
f  43/22/30 54/16/30 55/19/30 44/18/30
f  53/13/28 54/16/31 43/22/31 40/23/28
f  28/30/29 53/13/28 40/23/28
f  34/31/29 35/32/29 57/33/29 58/34/32
f  36/31/33 34/32/33 58/33/33 59/34/33
f  46/31/33 47/32/33 60/33/33 61/34/33
f  48/31/32 46/32/32 61/33/32 62/34/32
f  56/31/33 36/32/32 59/33/33 63/34/32
f  47/31/32 56/32/33 63/33/32 60/34/33

