# File produced by Open Asset Import Library (http://www.assimp.sf.net)
# (assimp v3.3.0)

mtllib road_divider_mesh..mtl

# 16 vertex positions
v  -1.574552655220032 0.5307996273040771 0.5307998657226562
v  1.574552655220032 0.5307996273040771 0.5307998657226562
v  1.574552655220032 0.6467109322547913 0.2439975738525391
v  -1.574552655220032 0.6467109322547913 0.2439975738525391
v  1.574552655220032 1.061599135398865 -0.2439975738525391
v  -1.574552655220032 1.061599135398865 -0.2439975738525391
v  -1.574552655220032 1.061599135398865 0.2439975738525391
v  1.574552655220032 1.061599135398865 0.2439975738525391
v  -1.574552655220032 0.6467109322547913 -0.2439975738525391
v  1.574552655220032 0.6467109322547913 -0.2439975738525391
v  1.574552655220032 0.5307996273040771 -0.5307998657226562
v  -1.574552655220032 0.5307996273040771 -0.5307998657226562
v  1.574552655220032 0 0.5307998657226562
v  1.574552655220032 0 -0.5307998657226562
v  -1.574552655220032 0 -0.5307998657226562
v  -1.574552655220032 0 0.5307998657226562

# 30 UV coordinates
vt 0.3938100636005402 0.7424256801605225 0
vt 0.3938099443912506 0.003338057082146406 0
vt 0.2576124668121338 0.003338088281452656 0
vt 0.2576125264167786 0.7424257397651672 0
vt 0.257608562707901 0.003338115522637963 0
vt 0.2576085329055786 0.742425799369812 0
vt 0.1430766582489014 0.742425799369812 0
vt 0.1430766582489014 0.003338117618113756 0
vt 0.2576124668121338 0.003338083624839783 0
vt 0.393809974193573 0.003338053822517395 0
vt 0.3938100934028625 0.7424256801605225 0
vt 0.7867752909660339 0.3728044033050537 0
vt 0.9851827025413513 0.3728044033050537 0
vt 0.9315810799598694 0.3944676518440247 0
vt 0.8403768539428711 0.3944676518440247 0
vt 0.7867752909660339 0.2736003994941711 0
vt 0.9851827025413513 0.2736003994941711 0
vt 0.5141719579696655 0.00333811342716217 0
vt 0.5141719579696655 0.742425799369812 0
vt 0.7749295830726624 0.7424258589744568 0
vt 0.7749293446540833 0.003337797475978732 0
vt 0.6115451455116272 0.7424257397651672 0
vt 0.6115450859069824 0.003338088281452656 0
vt 0.5141719579696655 0.003338117618113756 0
vt 0.9315810799598694 0.4720080494880676 0
vt 0.8403768539428711 0.4720080494880676 0
vt 0.5141503810882568 0.742425799369812 0
vt 0.5141503214836121 0.003338115522637963 0
vt 0.6503478288650513 0.003338102949783206 0
vt 0.6503479480743408 0.7424257397651672 0

# 9 vertex normals
vn 0 0.927143931388855 0.374705582857132
vn 0 1 0
vn 0 0.927143931388855 -0.374705582857132
vn 1 3.318456833767414e-07 0
vn -1 -3.318456833767414e-07 0
vn 1 0 0
vn 0 0 -1
vn -1 0 0
vn 0 0 1

# Mesh 'Road_divider_mesh' with 13 faces
g Road_divider_mesh
usemtl lambert2
f  1/1/1 2/2/1 3/3/1 4/4/1
f  5/5/2 6/6/2 7/7/2 8/8/2
f  9/4/3 10/9/3 11/10/3 12/11/3
f  2/12/4 11/13/4 10/14/4 3/15/4
f  4/14/5 9/15/5 12/12/5 1/13/5
f  13/16/6 14/17/6 11/13/6 2/12/6
f  12/11/7 11/10/7 14/18/7 15/19/7
f  12/12/8 15/16/8 16/17/8 1/13/8
f  16/20/9 13/21/9 2/2/9 1/1/9
f  4/22/9 3/23/9 8/24/9 7/19/9
f  7/25/8 6/26/8 9/15/8 4/14/8
f  6/27/7 5/28/7 10/29/7 9/30/7
f  10/14/6 5/25/6 8/26/6 3/15/6

