# File produced by Open Asset Import Library (http://www.assimp.sf.net)
# (assimp v3.3.0)

mtllib road_bend_left_mesh..mtl

# 25 vertex positions
v  -2.795985698699951 3.956770891835881e-13 1.787906885147095
v  -0.2812433242797852 3.956770891835881e-13 1.787906885147095
v  -0.2812433242797852 3.958384726769626e-13 -4.872536659240723
v  -2.795985698699951 3.958384726769626e-13 -4.872536659240723
v  -0.2812433242797852 3.955157599003223e-13 2.076550483703613
v  -2.795985698699951 3.955157599003223e-13 2.076550483703613
v  -2.795985698699951 0.1947957873344421 2.076550483703613
v  0 0.1947957873344421 2.076550483703613
v  0 0.1947957873344421 2.396711349487305
v  -2.795985698699951 0.1947957873344421 4.872536659240723
v  2.795986175537109 0.1947957873344421 4.872536659240723
v  0.3249359130859375 0.1947959959506989 2.393531322479248
v  0 0.1947957873344421 4.872536659240723
v  2.795985221862793 0.1947957873344421 -4.872536659240723
v  0.3190221786499023 0.1947957873344421 2.076550483703613
v  2.795986175537109 0.1947957873344421 2.076550483703613
v  0 3.955157599003223e-13 -4.872536659240723
v  0 3.955157599003223e-13 1.803360342979431
v  0 0.1947957873344421 -4.872536659240723
v  -9.5367431640625e-07 3.955157599003223e-13 2.076550483703613
v  -2.795985698699951 -5.960464477539062e-08 4.872536659240723
v  0 -5.960464477539062e-08 4.872536659240723
v  2.795986175537109 -5.960464477539062e-08 4.872536659240723
v  2.795986175537109 -5.960464477539062e-08 2.076550483703613
v  2.795985221862793 -5.960464477539062e-08 -4.872536659240723

# 47 UV coordinates
vt 0.3754144608974457 1 0
vt 0.3754144012928009 0.5147037506103516 0
vt 0.7989912033081055 0.5147037506103516 0
vt 0.7989912629127502 1 0
vt 0.3410731554031372 0.5147037506103516 0
vt 0.341073215007782 1 0
vt 0.3178973793983459 1 0
vt 0.3178973793983459 0.5014050006866455 0
vt 0.2814948856830597 0.5014069676399231 0
vt 0.009884119033813477 1 0
vt 0.2531140446662903 0.5578544735908508 0
vt 0.2529840469360352 0.4992490112781525 0
vt 0.009884119033813477 0.5014050006866455 0
vt 0.2816246449947357 0.01031767204403877 0
vt 0.009884119033813477 0.01031726598739624 0
vt 0.3410731256008148 1 0
vt 0.3410731554031372 0.5621210336685181 0
vt 0.3178973793983459 0.01031726598739624 0
vt 0.3323406875133514 0.4949951767921448 0
vt 0.3230385184288025 0.5014380812644958 0
vt 0.3323406577110291 0.5148683786392212 0
vt 0.3498036563396454 0.2958815693855286 0
vt 0.3498036563396454 0.3162088394165039 0
vt 0.3695489168167114 0.3162088990211487 0
vt 0.3706658482551575 0.2958815693855286 0
vt 0.3626874089241028 0.3751931190490723 0
vt 0.3585314154624939 0.3749629855155945 0
vt 0.3585314750671387 0.4750453233718872 0
vt 0.3626874685287476 0.4743505716323853 0
vt 0.2813999652862549 0.4924567639827728 0
vt 0.318204939365387 0.4924930930137634 0
vt 0.281513512134552 0.4675606191158295 0
vt 0.2849795818328857 1 0
vt 0.2853142321109772 0.5571677684783936 0
vt 0.2820141911506653 0.4928969740867615 0
vt 0.3392737507820129 0.5728715062141418 0
vt 0.3333881795406342 0.5728715062141418 0
vt 0.3333881795406342 0.5854780673980713 0
vt 0.3392737507820129 0.5854780673980713 0
vt 0.3315683007240295 0.5728715062141418 0
vt 0.3256827592849731 0.5728715062141418 0
vt 0.3256827592849731 0.5854780673980713 0
vt 0.3315683007240295 0.5854780673980713 0
vt 0.3333881795406342 0.5980846881866455 0
vt 0.3392737507820129 0.5980846881866455 0
vt 0.3256827592849731 0.6168100833892822 0
vt 0.3315683007240295 0.6168100833892822 0

# 29 vertex normals
vn 0 1 4.643878647400893e-17
vn 8.67446639806476e-17 1 4.3961221720735e-17
vn 8.661702670340822e-17 1 2.301349971073389e-17
vn 0 1 2.423536128076047e-17
vn 0 0 -1
vn -2.407095500700507e-08 1 2.463238324423855e-08
vn -1.113603098623628e-09 1 7.417753078442502e-10
vn 0 1 0
vn 0 1 5.58782182529064e-16
vn 2.737929942678467e-17 1 5.321193323549523e-16
vn 4.182783897022091e-09 1 4.013084087262087e-09
vn 3.356436240053995e-09 1 1.754482448212968e-09
vn -3.523625835555322e-08 0.9999999403953552 4.066322034645964e-08
vn 0 1 1.772371138741846e-09
vn 1.212608058409614e-08 1 -1.197753896065024e-08
vn 2.341882421319497e-08 1 -2.337235827098993e-08
vn -1 0 0
vn -1 2.399003307118619e-08 -1.710588115599876e-08
vn -0.9999999403953552 1.462643268723696e-07 -1.042924751004648e-07
vn -1 4.895765414403286e-06 -3.490881908874144e-06
vn 2.789259113578118e-16 1 2.871550481986241e-16
vn 8.350807829729501e-16 1 2.399033880279369e-17
vn 8.602073271389793e-16 1 1.210086984879132e-17
vn 0 1 2.753551608947191e-09
vn 0 0 1
vn 0.9999999403953552 0 0
vn 1 0 -9.786219834495569e-08
vn 0 0 0.9999999403953552
vn 1 0 -1.372373503727431e-07

# Mesh 'road_bend_left_mesh' with 20 faces
g road_bend_left_mesh
usemtl lambert49
f  1/1/1 2/2/2 3/3/3 4/4/4
f  5/5/5 6/6/5 7/7/5 8/8/5
f  9/9/6 8/8/7 7/7/8 10/10/8
f  6/6/9 5/5/10 2/2/2 1/1/1
f  11/10/11 12/11/12 9/12/6 13/13/13
f  14/10/14 15/14/15 16/15/16
f  17/16/17 18/17/18 8/18/19 19/7/17
f  18/17/18 20/5/20 8/18/19
f  8/19/5 20/20/5 5/21/5
f  5/22/10 20/23/21 18/24/22 2/25/2
f  2/26/2 18/27/22 17/28/23 3/29/3
f  15/30/15 8/31/7 12/32/12
f  11/10/11 16/33/16 15/34/15 12/11/12
f  13/13/13 9/9/6 10/10/8
f  14/10/14 19/7/24 8/18/7 15/14/15
f  8/31/7 9/35/6 12/32/12
f  10/36/25 21/37/25 22/38/25 13/39/25
f  11/40/26 23/41/26 24/42/27 16/43/27
f  13/39/25 22/38/25 23/44/28 11/45/28
f  16/43/27 24/42/27 25/46/29 14/47/29

