# File produced by Open Asset Import Library (http://www.assimp.sf.net)
# (assimp v3.3.0)

mtllib road_corner_mesh..mtl

# 13 vertex positions
v  -4.872536659240723 0.1947957873344421 4.872536659240723
v  -2.076550960540771 0.1947957873344421 2.076550245285034
v  -4.872539520263672 0.1947957873344421 2.076550483703613
v  -2.076550960540771 1.514978192809074e-13 2.076550245285034
v  -4.872539520263672 1.514978192809074e-13 2.076550483703613
v  -4.872539520263672 1.516591485641733e-13 1.787906885147095
v  -1.78790807723999 1.516591485641733e-13 1.787907123565674
v  -4.872539520263672 1.518205049524934e-13 -4.872536659240723
v  4.87253475189209 1.518205049524934e-13 -4.872535705566406
v  -2.076550960540771 0.1947957873344421 4.87253475189209
v  -2.076550960540771 1.514978192809074e-13 4.87253475189209
v  -1.787905931472778 1.516591485641733e-13 4.87253475189209
v  4.872539520263672 1.518205049524934e-13 4.87253475189209

# 11 UV coordinates
vt 0.01225932128727436 1.788139343261719e-07 0
vt 0.3178973793983459 1.788139343261719e-07 0
vt 0.3178973793983459 0.2375465333461761 0
vt 0.3410730957984924 1.788139343261719e-07 0
vt 0.3410731256008148 0.238381415605545 0
vt 0.3754143714904785 0.2500001490116119 0
vt 0.3754143416881561 1.788139343261719e-07 0
vt 0.78476881980896 0.6823923587799072 0
vt 0.4503407180309296 0.6823923587799072 0
vt 0.4503407180309296 0.858481764793396 0
vt 0.78476881980896 0.858481764793396 0

# 14 vertex normals
vn 0 1 -2.670072163368786e-09
vn 0 1 -5.340144326737573e-09
vn -1.094372521492915e-07 0 -1
vn -9.292910639476749e-25 1 2.915935008422366e-16
vn 0 1 5.589632358215396e-16
vn -2.794605744359864e-16 1 2.794816179107698e-16
vn -1.457867977839881e-16 1 1.457973856958288e-16
vn -1.85858212789535e-24 1 2.422377744346228e-17
vn -1.211303188533769e-17 1 1.211315761679079e-17
vn 0 1 0
vn 1 0 0
vn -2.915735955679762e-16 1 1.268792166950755e-21
vn -5.589211488719729e-16 1 0
vn -2.42260654250366e-17 1 2.537584535849901e-21

# Mesh 'road_corner_mesh' with 8 faces
g road_corner_mesh
usemtl raods_lambert45
f  1/1/1 2/2/1 3/3/2
f  4/4/3 5/5/3 3/3/3 2/2/3
f  6/6/4 5/5/5 4/4/6 7/7/7
f  8/8/8 6/9/4 7/10/7 9/11/9
f  1/1/1 10/3/10 2/2/1
f  4/4/11 2/2/11 10/3/11 11/5/11
f  12/6/12 7/7/7 4/4/6 11/5/13
f  13/8/14 9/11/9 7/10/7 12/9/12

