# File produced by Open Asset Import Library (http://www.assimp.sf.net)
# (assimp v3.3.0)

mtllib traffic_light_mesh..mtl

# 112 vertex positions
v  -0.4015312194824219 0.2630347013473511 -0.5314483642578125
v  -0.4015312194824219 2.331220626831055 -0.5314483642578125
v  0.3862190246582031 2.331220626831055 -0.5314483642578125
v  0.3862190246582031 0.2630347013473511 -0.5314483642578125
v  -0.4015312194824219 2.331220626831055 0.214324951171875
v  -0.4015312194824219 0.2630347013473511 0.214324951171875
v  0.3862190246582031 0.2630347013473511 0.214324951171875
v  0.3862190246582031 2.331220626831055 0.214324951171875
v  -0.1522026062011719 2.331220626831055 -0.29541015625
v  0.1368904113769531 2.331220626831055 -0.29541015625
v  0.1368904113769531 2.331220626831055 -0.021728515625
v  -0.1522026062011719 2.331220626831055 -0.021728515625
v  -0.1522026062011719 7.881678581237793 -0.29541015625
v  0.1368904113769531 7.881678581237793 -0.29541015625
v  0.1368904113769531 7.881678581237793 -0.021728515625
v  -0.1522026062011719 7.881678581237793 -0.021728515625
v  -0.5625343322753906 0.2630347013473511 0.3667449951171875
v  -0.5625343322753906 0.004203289747238159 0.3667449951171875
v  0.5472221374511719 0.004203289747238159 0.3667449951171875
v  0.5472221374511719 0.2630347013473511 0.3667449951171875
v  0.5472221374511719 0.004203289747238159 -0.6838836669921875
v  0.5472221374511719 0.2630347013473511 -0.6838836669921875
v  -0.5625343322753906 0.004203289747238159 -0.6838836669921875
v  -0.5625343322753906 0.2630347013473511 -0.6838836669921875
v  -0.2105712890625 6.936348915100098 0.417816162109375
v  -0.2105712890625 6.48594856262207 0.417816162109375
v  0.2398262023925781 6.48594856262207 0.417816162109375
v  0.2398262023925781 6.936348915100098 0.417816162109375
v  -0.2105712890625 6.48594856262207 0.1346893310546875
v  0.2398262023925781 6.48594856262207 0.1346893310546875
v  -0.2105712890625 6.936348915100098 0.1346893310546875
v  0.2398262023925781 6.936348915100098 0.1346893310546875
v  -0.2105712890625 6.379654884338379 0.417816162109375
v  -0.2105712890625 5.929254531860352 0.417816162109375
v  0.2398262023925781 5.929254531860352 0.417816162109375
v  0.2398262023925781 6.379654884338379 0.417816162109375
v  -0.2105712890625 5.929254531860352 0.1346893310546875
v  0.2398262023925781 5.929254531860352 0.1346893310546875
v  -0.2105712890625 6.379654884338379 0.1346893310546875
v  0.2398262023925781 6.379654884338379 0.1346893310546875
v  -0.2105712890625 5.827028274536133 0.417816162109375
v  -0.2105712890625 5.376626968383789 0.417816162109375
v  0.2398262023925781 5.376626968383789 0.417816162109375
v  0.2398262023925781 5.827028274536133 0.417816162109375
v  -0.2105712890625 5.376626968383789 0.1346893310546875
v  0.2398262023925781 5.376626968383789 0.1346893310546875
v  -0.2105712890625 5.827028274536133 0.1346893310546875
v  0.2398262023925781 5.827028274536133 0.1346893310546875
v  -0.5693473815917969 5.10260009765625 -0.010345458984375
v  0.5693473815917969 5.10260009765625 -0.010345458984375
v  0.5693473815917969 5.10260009765625 0.1839752197265625
v  -0.5693473815917969 5.10260009765625 0.1839752197265625
v  -0.4754905700683594 5.179519653320312 0.1839752197265625
v  0.4754905700683594 5.179519653320312 0.1839752197265625
v  0.4754905700683594 7.187148094177246 0.1839752197265625
v  -0.4754905700683594 7.187148094177246 0.1839752197265625
v  -0.5693473815917969 7.264066696166992 0.1839752197265625
v  0.5693473815917969 7.264066696166992 0.1839752197265625
v  0.5693473815917969 7.264066696166992 -0.010345458984375
v  -0.5693473815917969 7.264066696166992 -0.010345458984375
v  -0.4754905700683594 7.187148094177246 -0.010345458984375
v  0.4754905700683594 7.187148094177246 -0.010345458984375
v  0.4754905700683594 5.179519653320312 -0.010345458984375
v  -0.4754905700683594 5.179519653320312 -0.010345458984375
v  -0.2105712890625 6.926691055297852 0.6405029296875
v  0.2398262023925781 6.926691055297852 0.6405029296875
v  0.34503173828125 7.042295455932617 0.6838836669921875
v  -0.3157730102539062 7.042295455932617 0.6838836669921875
v  0.2398262023925781 6.540647506713867 0.48333740234375
v  0.3423271179199219 6.540647506713867 0.48333740234375
v  -0.2105712890625 6.540647506713867 0.48333740234375
v  -0.3130683898925781 6.540647506713867 0.48333740234375
v  -0.2105712890625 6.926691055297852 0.168304443359375
v  0.2398262023925781 6.926691055297852 0.168304443359375
v  0.34503173828125 7.042295455932617 0.168304443359375
v  -0.3157730102539062 7.042295455932617 0.168304443359375
v  0.2398262023925781 6.540647506713867 0.168304443359375
v  0.3423271179199219 6.540647506713867 0.168304443359375
v  -0.2105712890625 6.540647506713867 0.168304443359375
v  -0.3130683898925781 6.540647506713867 0.168304443359375
v  -0.2105712890625 6.372140884399414 0.6405029296875
v  0.2398262023925781 6.372140884399414 0.6405029296875
v  0.34503173828125 6.487747192382812 0.6838836669921875
v  -0.3157730102539062 6.487747192382812 0.6838836669921875
v  0.2398262023925781 5.986098289489746 0.48333740234375
v  0.3423271179199219 5.986098289489746 0.48333740234375
v  -0.2105712890625 5.986098289489746 0.48333740234375
v  -0.3130683898925781 5.986098289489746 0.48333740234375
v  -0.2105712890625 6.372140884399414 0.168304443359375
v  0.2398262023925781 6.372140884399414 0.168304443359375
v  0.34503173828125 6.487747192382812 0.168304443359375
v  -0.3157730102539062 6.487747192382812 0.168304443359375
v  0.2398262023925781 5.986098289489746 0.168304443359375
v  0.3423271179199219 5.986098289489746 0.168304443359375
v  -0.2105712890625 5.986098289489746 0.168304443359375
v  -0.3130683898925781 5.986098289489746 0.168304443359375
v  -0.2105712890625 5.82026195526123 0.6405029296875
v  0.2398262023925781 5.82026195526123 0.6405029296875
v  0.34503173828125 5.935868263244629 0.6838836669921875
v  -0.3157730102539062 5.935868263244629 0.6838836669921875
v  0.2398262023925781 5.43421745300293 0.48333740234375
v  0.3423271179199219 5.43421745300293 0.48333740234375
v  -0.2105712890625 5.43421745300293 0.48333740234375
v  -0.3130683898925781 5.43421745300293 0.48333740234375
v  -0.2105712890625 5.82026195526123 0.168304443359375
v  0.2398262023925781 5.82026195526123 0.168304443359375
v  0.34503173828125 5.935868263244629 0.168304443359375
v  -0.3157730102539062 5.935868263244629 0.168304443359375
v  0.2398262023925781 5.43421745300293 0.168304443359375
v  0.3423271179199219 5.43421745300293 0.168304443359375
v  -0.2105712890625 5.43421745300293 0.168304443359375
v  -0.3130683898925781 5.43421745300293 0.168304443359375

# 154 UV coordinates
vt 0.3263239860534668 0.3328109979629517 0
vt 0.3263239860534668 0.3066700100898743 0
vt 0.3163670003414154 0.3066700100898743 0
vt 0.3163670003414154 0.3328109979629517 0
vt 0.2958770096302032 0.3328109979629517 0
vt 0.2958770096302032 0.3066700100898743 0
vt 0.2859210073947906 0.3066700100898743 0
vt 0.2859210073947906 0.3328109979629517 0
vt 0.19166000187397 0.3328109979629517 0
vt 0.19166000187397 0.3066700100898743 0
vt 0.1822340041399002 0.3066700100898743 0
vt 0.1822340041399002 0.3328109979629517 0
vt 0.1817149966955185 0.3328109979629517 0
vt 0.1817149966955185 0.3066700100898743 0
vt 0.1722889989614487 0.3066700100898743 0
vt 0.1722889989614487 0.3328109979629517 0
vt 0.4348779916763306 0.3008719980716705 0
vt 0.4385330080986023 0.2970109879970551 0
vt 0.4385330080986023 0.2925359904766083 0
vt 0.4348779916763306 0.288675993680954 0
vt 0.4427700042724609 0.2925359904766083 0
vt 0.4464240074157715 0.288675993680954 0
vt 0.4427700042724609 0.2970109879970551 0
vt 0.4464240074157715 0.3008719980716705 0
vt 0.3584539890289307 0.3328109979629517 0
vt 0.3584539890289307 0.2669680118560791 0
vt 0.3547999858856201 0.2669680118560791 0
vt 0.3547999858856201 0.3328109979629517 0
vt 0.2300619930028915 0.3328109979629517 0
vt 0.2300619930028915 0.2669680118560791 0
vt 0.2266030013561249 0.2669680118560791 0
vt 0.2266030013561249 0.3328109979629517 0
vt 0.3589459955692291 0.256197988986969 0
vt 0.3589459955692291 0.3220399916172028 0
vt 0.3625999987125397 0.3220399916172028 0
vt 0.3625999987125397 0.256197988986969 0
vt 0.2260850071907043 0.3328109979629517 0
vt 0.2260850071907043 0.2669680118560791 0
vt 0.2226250022649765 0.2669680118560791 0
vt 0.2226250022649765 0.3328109979629517 0
vt 0.3593670129776001 0.3186360001564026 0
vt 0.3660629987716675 0.3186360001564026 0
vt 0.3660629987716675 0.2870369851589203 0
vt 0.3593670129776001 0.2870369851589203 0
vt 0.1702630072832108 0.2870369851589203 0
vt 0.1635670065879822 0.2870369851589203 0
vt 0.1635670065879822 0.3169519901275635 0
vt 0.1702630072832108 0.3169519901275635 0
vt 0.3020519912242889 0.2870369851589203 0
vt 0.2953560054302216 0.2870369851589203 0
vt 0.2953560054302216 0.3186360001564026 0
vt 0.3020519912242889 0.3186360001564026 0
vt 0.1625819951295853 0.2870369851589203 0
vt 0.1558859944343567 0.2870369851589203 0
vt 0.1558859944343567 0.3169519901275635 0
vt 0.1625819951295853 0.3169519901275635 0
vt 0.4976440072059631 0.2865490019321442 0
vt 0.5000039935112 0.2890419960021973 0
vt 0.5000039935112 0.2718609869480133 0
vt 0.4976440072059631 0.2743529975414276 0
vt 0.4837380051612854 0.2718609869480133 0
vt 0.4860979914665222 0.2743529975414276 0
vt 0.4837380051612854 0.2890419960021973 0
vt 0.4860979914665222 0.2865490019321442 0
vt 0.4308309853076935 0.1620689928531647 0
vt 0.4780769944190979 0.1620689928531647 0
vt 0.4293670058250427 0.1620689928531647 0
vt 0.4782580137252808 0.1823350042104721 0
vt 0.0424560010433197 0.6680369973182678 0
vt 0.0424560010433197 0.6903949975967407 0
vt 0.0648140013217926 0.6903949975967407 0
vt 0.0648140013217926 0.6680369973182678 0
vt 0.1688839942216873 0.2645869851112366 0
vt 0.1688839942216873 0.2869449853897095 0
vt 0.1912419945001602 0.2869449853897095 0
vt 0.1912419945001602 0.2645869851112366 0
vt 0.1688839942216873 0.3093029856681824 0
vt 0.1912419945001602 0.3093029856681824 0
vt 0.1688839942216873 0.3316600024700165 0
vt 0.1912419945001602 0.3316600024700165 0
vt 0.1912419945001602 0.2422289997339249 0
vt 0.2135999947786331 0.2645869851112366 0
vt 0.2135999947786331 0.2422289997339249 0
vt 0.1465259939432144 0.2422289997339249 0
vt 0.1465259939432144 0.2645869851112366 0
vt 0.1688839942216873 0.2422289997339249 0
vt 0.3094410002231598 0.7723280191421509 0
vt 0.3094410002231598 0.7946860194206238 0
vt 0.3317990005016327 0.7946860194206238 0
vt 0.3317990005016327 0.7723280191421509 0
vt 0.4262470006942749 0.789014995098114 0
vt 0.4262470006942749 0.8113729953765869 0
vt 0.4486050009727478 0.8113729953765869 0
vt 0.4486050009727478 0.789014995098114 0
vt 0.5512059926986694 0.1269479990005493 0
vt 0.5681899785995483 0.1269479990005493 0
vt 0.5681899785995483 0.1439310014247894 0
vt 0.5512059926986694 0.1439310014247894 0
vt 0.1745000034570694 0.1289740055799484 0
vt 0.199863001704216 0.1289740055799484 0
vt 0.199863001704216 0.154337003827095 0
vt 0.1745000034570694 0.154337003827095 0
vt 0.5512059926986694 0.1609150022268295 0
vt 0.5681899785995483 0.1609150022268295 0
vt 0.5681899785995483 0.1778980046510696 0
vt 0.5512059926986694 0.1778980046510696 0
vt 0.1745000034570694 0.1797000020742416 0
vt 0.199863001704216 0.1797000020742416 0
vt 0.199863001704216 0.2050630003213882 0
vt 0.1745000034570694 0.2050630003213882 0
vt 0.5851730108261108 0.1269479990005493 0
vt 0.5851730108261108 0.1439310014247894 0
vt 0.5342230200767517 0.1269479990005493 0
vt 0.5342230200767517 0.1439310014247894 0
vt 0.2088019996881485 0.1910350024700165 0
vt 0.2088019996881485 0.1403830051422119 0
vt 0.2145649939775467 0.1285520046949387 0
vt 0.2145649939775467 0.2028660029172897 0
vt 0.1581490039825439 0.1403830051422119 0
vt 0.1581490039825439 0.1288560032844543 0
vt 0.1581490039825439 0.1910350024700165 0
vt 0.1581490039825439 0.202562004327774 0
vt 0.06335499882698059 0.2584089934825897 0
vt 0.08153299987316132 0.2584089934825897 0
vt 0.08153299987316132 0.279217004776001 0
vt 0.06335499882698059 0.279217004776001 0
vt 0.3527730107307434 0.2636989951133728 0
vt 0.3527730107307434 0.3442279994487762 0
vt 0.2899430096149445 0.3442279994487762 0
vt 0.2899430096149445 0.2636989951133728 0
vt 0.09242299944162369 0.3003109991550446 0
vt 0.07424499839544296 0.3003109991550446 0
vt 0.07424499839544296 0.2875959873199463 0
vt 0.09242299944162369 0.2795020043849945 0
vt 0.04207000136375427 0.3064579963684082 0
vt 0.0462069995701313 0.3064579963684082 0
vt 0.0462069995701313 0.3191719949245453 0
vt 0.04207000136375427 0.3191719949245453 0
vt 0.05355999991297722 0.2853640019893646 0
vt 0.0738070011138916 0.2853640019893646 0
vt 0.0738070011138916 0.3061729967594147 0
vt 0.05355999991297722 0.2980780005455017 0
vt 0.03494400158524513 0.2853640019893646 0
vt 0.05312199890613556 0.2853640019893646 0
vt 0.05312199890613556 0.3061729967594147 0
vt 0.03494400158524513 0.2980780005455017 0
vt 0.04157499969005585 0.3272660076618195 0
vt 0.02132800035178661 0.3272660076618195 0
vt 0.02132800035178661 0.3145520091056824 0
vt 0.04157499969005585 0.3064579963684082 0
vt 0.04666100069880486 0.3064579963684082 0
vt 0.05079799890518188 0.3064579963684082 0
vt 0.05079799890518188 0.3191719949245453 0
vt 0.04666100069880486 0.3191719949245453 0

# 33 vertex normals
vn 0 0 -1
vn 0 0 1
vn 1 0 0
vn -1 0 0
vn 0 1 0
vn 0 -1 0
vn 0 0 0
vn 2.99999987873889e-06 0 -1
vn -3.999999989900971e-06 0 -1
vn -4.999999873689376e-06 0 -1
vn 3.999999989900971e-06 0 -1
vn -9.999999974752427e-07 0 1
vn -0.006252998020499945 -0.3611498773097992 0.9324867725372314
vn 0.006253000348806381 -0.3611490428447723 0.9324870705604553
vn 0.005296001210808754 -0.3596500754356384 0.9330721497535706
vn -0.005296001210808754 -0.3596500754356384 0.9330721497535706
vn 0.0143319983035326 -0.3737619817256927 0.9274138808250427
vn -0.01433300133794546 -0.3737640380859375 0.9274130463600159
vn -1 -2.99999987873889e-06 0
vn 0.9999855160713196 -0.005391997750848532 0
vn 0.9999854564666748 -0.005392002873122692 0
vn 1 1.999999994950485e-06 0
vn -0.9999855160713196 -0.005392997525632381 0
vn -0.9999854564666748 -0.005393002647906542 0
vn -0.006253002677112818 -0.3611481785774231 0.9324874877929688
vn 0.00625199731439352 -0.3611478209495544 0.9324876070022583
vn 0.005295000039041042 -0.3596479892730713 0.9330730438232422
vn -0.005295999813824892 -0.3596479594707489 0.9330729842185974
vn 0.01432999782264233 -0.3737619817256927 0.9274138808250427
vn -0.00625299708917737 -0.3611478209495544 0.9324876070022583
vn 0.006253999192267656 -0.3611469268798828 0.9324879050254822
vn 0.005297002382576466 -0.359647125005722 0.9330734014511108
vn 0.01433500275015831 -0.3737610876560211 0.9274141788482666

# Mesh 'traffic_light_mesh' with 94 faces
g traffic_light_mesh
usemtl props_material
f  1/1/1 2/2/1 3/3/1 4/4/1
f  5/5/2 6/6/2 7/7/2 8/8/2
f  4/9/3 3/10/3 8/11/3 7/12/3
f  6/13/4 5/14/4 2/15/4 1/16/4
f  2/17/5 9/18/5 10/19/5 3/20/5
f  3/20/5 10/19/5 11/21/5 8/22/5
f  8/22/5 11/21/5 12/23/5 5/24/5
f  5/24/5 12/23/5 9/18/5 2/17/5
f  9/25/1 13/26/1 14/27/1 10/28/1
f  10/29/3 14/30/3 15/31/3 11/32/3
f  11/33/2 15/34/2 16/35/2 12/36/2
f  12/37/4 16/38/4 13/39/4 9/40/4
f  17/41/2 18/42/2 19/43/2 20/44/2
f  20/45/3 19/46/3 21/47/3 22/48/3
f  22/49/1 21/50/1 23/51/1 24/52/1
f  24/53/4 23/54/4 18/55/4 17/56/4
f  6/57/5 17/58/5 20/59/5 7/60/5
f  7/60/5 20/59/5 22/61/5 4/62/5
f  4/62/5 22/61/5 24/63/5 1/64/5
f  1/64/5 24/63/5 17/58/5 6/57/5
f  14/65/5 13/66/5 16/67/5 15/68/5
f  25/69/2 26/70/2 27/71/2 28/72/2
f  26/73/6 29/74/6 30/75/6 27/76/6
f  29/74/1 31/77/1 32/78/1 30/75/1
f  31/77/5 25/79/5 28/80/5 32/78/5
f  28/81/3 27/76/3 30/82/3 32/83/3
f  31/84/4 29/85/4 26/73/4 25/86/4
f  33/87/2 34/88/2 35/89/2 36/90/2
f  34/73/6 37/74/6 38/75/6 35/76/6
f  37/74/1 39/77/1 40/78/1 38/75/1
f  39/77/5 33/79/5 36/80/5 40/78/5
f  36/81/3 35/76/3 38/82/3 40/83/3
f  39/84/4 37/85/4 34/73/4 33/86/4
f  41/91/2 42/92/2 43/93/2 44/94/2
f  42/73/6 45/74/6 46/75/6 43/76/6
f  45/74/1 47/77/1 48/78/1 46/75/1
f  47/77/5 41/79/5 44/80/5 48/78/5
f  44/81/3 43/76/3 46/82/3 48/83/3
f  47/84/4 45/85/4 42/73/4 41/86/4
f  49/95/6 50/96/6 51/97/6 52/98/6
f  53/99/2 54/100/2 55/101/2 56/102/2
f  57/103/5 58/104/5 59/105/5 60/106/5
f  61/107/1 62/108/1 63/109/1 64/110/1
f  50/96/3 59/111/3 58/112/3 51/97/3
f  60/113/4 49/95/4 52/98/4 57/114/4
f  64/95/7 63/96/7 63/96/7 64/95/7
f  54/97/7 53/98/7 53/98/7 54/97/7
f  56/103/7 55/104/7 55/104/7 56/103/7
f  62/105/7 61/106/7 61/106/7 62/105/7
f  63/96/7 62/111/7 62/111/7 63/96/7
f  55/112/7 54/97/7 54/97/7 55/112/7
f  61/113/7 64/95/7 64/95/7 61/113/7
f  53/98/7 56/114/7 56/114/7 53/98/7
f  64/95/8 63/96/9 50/96/10 49/95/11
f  54/97/2 53/98/12 52/98/12 51/97/2
f  56/103/12 55/104/2 58/104/2 57/103/12
f  62/105/9 61/106/8 60/106/11 59/105/10
f  63/96/9 62/111/9 59/111/10 50/96/10
f  55/112/2 54/97/2 51/97/2 58/112/2
f  61/113/8 64/95/8 49/95/11 60/113/11
f  53/98/12 56/114/12 57/114/12 52/98/12
f  65/115/13 66/116/14 67/117/15 68/118/16
f  66/116/14 69/119/17 70/120/17 67/117/15
f  71/121/18 65/115/13 68/118/16 72/122/18
f  73/123/6 74/124/6 66/125/6 65/126/6
f  75/127/5 76/128/5 68/129/5 67/130/5
f  74/131/19 77/132/19 69/133/19 66/134/19
f  77/135/6 78/136/6 70/137/6 69/138/6
f  78/139/20 75/140/20 67/141/21 70/142/20
f  79/143/22 73/144/22 65/145/22 71/146/22
f  76/147/23 80/148/23 72/149/24 68/150/24
f  80/151/6 79/152/6 71/153/6 72/154/6
f  81/115/25 82/116/26 83/117/27 84/118/28
f  82/116/26 85/119/29 86/120/29 83/117/27
f  87/121/18 81/115/25 84/118/28 88/122/18
f  89/123/6 90/124/6 82/125/6 81/126/6
f  91/127/5 92/128/5 84/129/5 83/130/5
f  90/131/19 93/132/19 85/133/19 82/134/19
f  93/135/6 94/136/6 86/137/6 85/138/6
f  94/139/20 91/140/20 83/141/21 86/142/20
f  95/143/22 89/144/22 81/145/22 87/146/22
f  92/147/23 96/148/23 88/149/24 84/150/24
f  96/151/6 95/152/6 87/153/6 88/154/6
f  97/115/30 98/116/31 99/117/32 100/118/28
f  98/116/31 101/119/33 102/120/33 99/117/32
f  103/121/18 97/115/30 100/118/28 104/122/18
f  105/123/6 106/124/6 98/125/6 97/126/6
f  107/127/5 108/128/5 100/129/5 99/130/5
f  106/131/19 109/132/19 101/133/19 98/134/19
f  109/135/6 110/136/6 102/137/6 101/138/6
f  110/139/20 107/140/20 99/141/20 102/142/20
f  111/143/22 105/144/22 97/145/22 103/146/22
f  108/147/23 112/148/23 104/149/23 100/150/23
f  112/151/6 111/152/6 103/153/6 104/154/6

