# File produced by Open Asset Import Library (http://www.assimp.sf.net)
# (assimp v3.3.0)

mtllib trash_mesh..mtl

# 24 vertex positions
v  0.4387532472610474 0.9647059440612793 0.4634445905685425
v  0.4387532472610474 0.9647059440612793 -0.4634445905685425
v  0.448639988899231 1.095865249633789 -0.4738876819610596
v  0.448639988899231 1.095865249633789 0.4738876819610596
v  -0.448639988899231 1.095865249633789 0.4738876819610596
v  -0.448639988899231 1.095865249633789 -0.4738876819610596
v  -0.4387532472610474 0.9647059440612793 -0.4634445905685425
v  -0.4387532472610474 0.9647059440612793 0.4634445905685425
v  0.340984046459198 1.095865249633789 -0.3601741194725037
v  0.340984046459198 1.095865249633789 0.3601738810539246
v  -0.3409848809242249 1.095865249633789 0.3601738810539246
v  -0.3409848809242249 1.095865249633789 -0.3601741194725037
v  -0.3657894134521484 -0.003288349136710167 -0.3863738179206848
v  0.3657886385917664 -0.003288349136710167 -0.3863738179206848
v  0.3657886385917664 -0.003288349136710167 0.3863735795021057
v  -0.3657894134521484 -0.003288349136710167 0.3863735795021057
v  0.1042454838752747 1.095865249633789 -0.1101119369268417
v  0.1042454838752747 1.095865249633789 0.1101115345954895
v  -0.1042470633983612 1.095865249633789 0.1101115345954895
v  -0.1042470633983612 1.095865249633789 -0.1101119369268417
v  0.1042454838752747 1.20003867149353 -0.1101119369268417
v  0.1042454838752747 1.20003867149353 0.1101115345954895
v  -0.1042470633983612 1.20003867149353 0.1101115345954895
v  -0.1042470633983612 1.20003867149353 -0.1101119369268417

# 72 UV coordinates
vt 0.2944566607475281 0.2670239210128784 0
vt 0.3130321502685547 0.2670239210128784 0
vt 0.3132414221763611 0.2696524262428284 0
vt 0.2942473292350769 0.2696524262428284 0
vt 0.313647449016571 0.2476247102022171 0
vt 0.3326413631439209 0.2476247102022171 0
vt 0.3324321508407593 0.2502533197402954 0
vt 0.3138566017150879 0.2502533197402954 0
vt 0.1926835030317307 0.1591597944498062 0
vt 0.2102693170309067 0.1591597944498062 0
vt 0.2104673832654953 0.1617882996797562 0
vt 0.1924853771924973 0.1617882996797562 0
vt 0.1959641426801682 0.1814281493425369 0
vt 0.2135498970746994 0.1814281493425369 0
vt 0.2137480229139328 0.184056743979454 0
vt 0.1957660168409348 0.184056743979454 0
vt 0.5206183195114136 0.3474258482456207 0
vt 0.5206183195114136 0.2499915063381195 0
vt 0.5432627201080322 0.2739101946353912 0
vt 0.5432627201080322 0.3235071301460266 0
vt 0.6128615736961365 0.2499915063381195 0
vt 0.6128615736961365 0.3474258482456207 0
vt 0.5902171730995178 0.3235071301460266 0
vt 0.5902171730995178 0.2739101946353912 0
vt 0.1378891468048096 0.1507754623889923 0
vt 0.15659499168396 0.1507754623889923 0
vt 0.15659499168396 0.1705338954925537 0
vt 0.1378891468048096 0.1705338954925537 0
vt 0.4195416569709778 0.2611486911773682 0
vt 0.4381172060966492 0.2611486911773682 0
vt 0.4365726113319397 0.2805477976799011 0
vt 0.421086311340332 0.2805477976799011 0
vt 0.3499614596366882 0.2709826529026031 0
vt 0.3646227121353149 0.2709826529026031 0
vt 0.3660849928855896 0.2903818190097809 0
vt 0.3484992384910583 0.2903818190097809 0
vt 0.4016863107681274 0.2585200667381287 0
vt 0.4171726703643799 0.2585200667381287 0
vt 0.4187172055244446 0.2779192924499512 0
vt 0.400141716003418 0.2779192924499512 0
vt 0.3466809391975403 0.2487142384052277 0
vt 0.3613420724868774 0.2487142384052277 0
vt 0.3628044128417969 0.2681134641170502 0
vt 0.3452185988426208 0.2681134641170502 0
vt 0.2635330855846405 0.328294962644577 0
vt 0.2635330855846405 0.2676249146461487 0
vt 0.283471941947937 0.2886859476566315 0
vt 0.283471941947937 0.3072338998317719 0
vt 0.3209707140922546 0.2676249146461487 0
vt 0.3209707140922546 0.328294962644577 0
vt 0.3010318875312805 0.3072338998317719 0
vt 0.3010318875312805 0.2886859476566315 0
vt 0.1817355155944824 0.2941729426383972 0
vt 0.1817355155944824 0.2866050899028778 0
vt 0.1853154301643372 0.2866050899028778 0
vt 0.1853154301643372 0.2941729426383972 0
vt 0.1877757906913757 0.2942919731140137 0
vt 0.1877757906913757 0.3018598556518555 0
vt 0.1841959357261658 0.3018598556518555 0
vt 0.1841959357261658 0.2942919731140137 0
vt 0.1730854511260986 0.3186432719230652 0
vt 0.1730854511260986 0.3114784955978394 0
vt 0.1766653060913086 0.3114784955978394 0
vt 0.1766653060913086 0.3186432719230652 0
vt 0.169322669506073 0.3186432719230652 0
vt 0.169322669506073 0.3114784955978394 0
vt 0.172902524471283 0.3114784955978394 0
vt 0.172902524471283 0.3186432719230652 0
vt 0.5940832495689392 0.2660554647445679 0
vt 0.5940832495689392 0.3294765949249268 0
vt 0.5340403914451599 0.3294765949249268 0
vt 0.5340403914451599 0.2660554647445679 0

# 33 vertex normals
vn 0.9971711039543152 -0.07516423612833023 0
vn 0.99717116355896 -0.07516423612833023 0
vn 0.9971709847450256 -0.07516640424728394 0
vn -0.9971709847450256 -0.07516640424728394 0
vn -0.99717116355896 -0.07516355067491531 0
vn -0.99717116355896 -0.07516355812549591 0
vn 0 -0.07936819642782211 -0.9968453645706177
vn 0 -0.07936818897724152 -0.9968453049659729
vn 0 -0.07937026768922806 -0.9968451857566833
vn 0 -0.07936841249465942 0.9968453049659729
vn 0 -0.07936842739582062 0.9968453645706177
vn 0 -0.07937026768922806 0.9968451857566833
vn 0 1 8.586691535583668e-08
vn 0 1 1.288003375066182e-07
vn 0 1 8.704368070766577e-08
vn 0 1 5.802904823326571e-08
vn 0 1 1.288014317424313e-07
vn 0 1 8.586764721485451e-08
vn 0 1 5.802914060382136e-08
vn 0 1 8.704382281621292e-08
vn 0 -1 0
vn -0.9971712827682495 -0.0751630887389183 0
vn -0.9971712231636047 -0.0751630887389183 0
vn 0 -0.07936812192201614 0.9968453049659729
vn 0 -0.07936811447143555 0.9968453049659729
vn 0.99717116355896 -0.07516387850046158 0
vn 0 -0.07936785370111465 -0.9968454241752625
vn 0 -0.07936786115169525 -0.9968454241752625
vn 0 1 0
vn 1 0 0
vn -1 0 0
vn 0 0 1
vn 0 0 -1

# Mesh 'trash_mesh' with 22 faces
g trash_mesh
usemtl props_material
f  1/1/1 2/2/2 3/3/3 4/4/3
f  5/5/4 6/6/4 7/7/5 8/8/6
f  2/9/7 7/10/8 6/11/9 3/12/9
f  8/13/10 1/14/11 4/15/12 5/16/12
f  4/17/13 3/18/14 9/19/15 10/20/16
f  6/21/17 5/22/18 11/23/19 12/24/20
f  5/22/18 4/17/13 10/20/16 11/23/19
f  3/18/14 6/21/17 12/24/20 9/19/15
f  13/25/21 14/26/21 15/27/21 16/28/21
f  8/29/6 7/30/5 13/31/22 16/32/23
f  16/33/24 15/34/25 1/35/11 8/36/10
f  15/37/26 14/38/26 2/39/2 1/40/1
f  14/41/27 13/42/28 7/43/8 2/44/7
f  10/45/16 9/46/15 17/47/29 18/48/29
f  12/49/20 11/50/19 19/51/29 20/52/29
f  11/50/19 10/45/16 18/48/29 19/51/29
f  9/46/15 12/49/20 20/52/29 17/47/29
f  18/53/30 17/54/30 21/55/30 22/56/30
f  20/57/31 19/58/31 23/59/31 24/60/31
f  19/61/32 18/62/32 22/63/32 23/64/32
f  17/65/33 20/66/33 24/67/33 21/68/33
f  24/69/29 23/70/29 22/71/29 21/72/29

