# File produced by Open Asset Import Library (http://www.assimp.sf.net)
# (assimp v3.3.0)

mtllib tree_medium_mesh..mtl

# 64 vertex positions
v  -0.1758956909179688 -0.01415252685546875 0.2412624359130859
v  0.1804656982421875 -0.01415252685546875 0.2412624359130859
v  0.1804656982421875 2.772647619247437 0.2412624359130859
v  -0.1758956909179688 2.772647619247437 0.2412624359130859
v  -0.1758956909179688 2.772647619247437 -0.1351566314697266
v  0.1804656982421875 2.772647619247437 -0.1351566314697266
v  0.1804656982421875 -0.01415252685546875 -0.1351566314697266
v  -0.1758956909179688 -0.01415252685546875 -0.1351566314697266
v  0.9585075378417969 3.159245014190674 0.3979682922363281
v  -0.08963775634765625 3.159245014190674 0.3979682922363281
v  -0.08963775634765625 3.159245014190674 1.505109786987305
v  0.9585075378417969 3.159245014190674 1.505109786987305
v  -0.08963775634765625 2.016363859176636 1.505109786987305
v  -0.08963775634765625 2.016363859176636 0.3979682922363281
v  0.9585075378417969 2.016363859176636 0.3979682922363281
v  0.9585075378417969 2.016363859176636 1.505109786987305
v  -1.052135467529297 3.38314414024353 0.9670085906982422
v  -0.0449066162109375 3.38314414024353 0.9670085906982422
v  -0.0449066162109375 3.38314414024353 -0.09691619873046875
v  -1.052135467529297 3.38314414024353 -0.09691619873046875
v  -0.0449066162109375 2.284875392913818 -0.09691619873046875
v  -0.0449066162109375 2.284875392913818 0.9670085906982422
v  -1.052135467529297 2.284875392913818 0.9670085906982422
v  -1.052135467529297 2.284875392913818 -0.09691619873046875
v  -0.30975341796875 3.320360422134399 -0.4302635192871094
v  0.8774528503417969 3.320360422134399 -0.4302635192871094
v  0.8774528503417969 3.320360422134399 -1.505109786987305
v  -0.30975341796875 3.320360422134399 -1.505109786987305
v  0.8774528503417969 2.210817575454712 -1.505109786987305
v  0.8774528503417969 2.210817575454712 -0.4302635192871094
v  -0.30975341796875 2.210817575454712 -0.4302635192871094
v  -0.30975341796875 2.210817575454712 -1.505109786987305
v  -1.009548187255859 3.163059234619141 0.02369499206542969
v  0.07231903076171875 3.163059234619141 0.02369499206542969
v  0.07231903076171875 3.163059234619141 -1.119070053100586
v  -1.009548187255859 3.163059234619141 -1.119070053100586
v  0.07231903076171875 1.983407258987427 -1.119070053100586
v  0.07231903076171875 1.983407258987427 0.02369499206542969
v  -1.009548187255859 1.983407258987427 0.02369499206542969
v  -1.009548187255859 1.983407258987427 -1.119070053100586
v  -0.6414299011230469 4.433908939361572 0.6347751617431641
v  0.6896591186523438 4.433908939361572 0.6347751617431641
v  0.6896591186523438 4.433908939361572 -0.7712383270263672
v  -0.6414299011230469 4.433908939361572 -0.7712383270263672
v  0.6896591186523438 2.982509613037109 -0.7712383270263672
v  0.6896591186523438 2.982509613037109 0.6347751617431641
v  -0.6414299011230469 2.982509613037109 0.6347751617431641
v  -0.6414299011230469 2.982509613037109 -0.7712383270263672
v  0.3383026123046875 3.172135353088379 -0.4666481018066406
v  0.3383026123046875 3.172135353088379 0.5509223937988281
v  1.413150787353516 3.172135353088379 0.5509223937988281
v  1.413150787353516 3.172135353088379 -0.4666481018066406
v  1.413150787353516 2.062592506408691 0.5509223937988281
v  0.3383026123046875 2.062592506408691 0.5509223937988281
v  0.3383026123046875 2.062592506408691 -0.4666481018066406
v  1.413150787353516 2.062592506408691 -0.4666481018066406
v  -1.413154602050781 2.835090637207031 0.4236164093017578
v  -0.4941749572753906 2.835090637207031 0.4236164093017578
v  -0.4941749572753906 2.835090637207031 -0.5470905303955078
v  -1.413154602050781 2.835090637207031 -0.5470905303955078
v  -0.4941749572753906 1.833050489425659 -0.5470905303955078
v  -0.4941749572753906 1.833050489425659 0.4236164093017578
v  -1.413154602050781 1.833050489425659 0.4236164093017578
v  -1.413154602050781 1.833050489425659 -0.5470905303955078

# 100 UV coordinates
vt 0.4301232993602753 0.2170210182666779 0
vt 0.4301231801509857 0.210866391658783 0
vt 0.4367035329341888 0.2108663022518158 0
vt 0.4367034137248993 0.2170209288597107 0
vt 0.4127441644668579 0.1791649758815765 0
vt 0.4127440452575684 0.1730103194713593 0
vt 0.4193241596221924 0.1730102598667145 0
vt 0.4193240404129028 0.1791649162769318 0
vt 0.197845458984375 0.1948041319847107 0
vt 0.197845458984375 0.1883028447628021 0
vt 0.204425573348999 0.1883029043674469 0
vt 0.2044258117675781 0.1948040425777435 0
vt 0.1977431774139404 0.1821853220462799 0
vt 0.1977430582046509 0.1756843030452728 0
vt 0.2043231725692749 0.1756843030452728 0
vt 0.2043232917785645 0.1821852624416351 0
vt 0.05627855286002159 0.7742525339126587 0
vt 0.1745744347572327 0.7742525339126587 0
vt 0.1745744347572327 0.8992069363594055 0
vt 0.05627855286002159 0.8992069363594055 0
vt 0.9385470151901245 0.4718425273895264 0
vt 0.9385470151901245 0.5663965940475464 0
vt 0.8490315675735474 0.5663965940475464 0
vt 0.8490315675735474 0.4718425273895264 0
vt 0.87941575050354 0.4307445883750916 0
vt 0.928300142288208 0.4307445883750916 0
vt 0.928300142288208 0.4840473532676697 0
vt 0.87941575050354 0.4840473532676697 0
vt 0.47981196641922 0.6035694479942322 0
vt 0.4905199408531189 0.6035694479942322 0
vt 0.4905199408531189 0.6146231293678284 0
vt 0.47981196641922 0.6146231293678284 0
vt 0.3714529275894165 0.5599563717842102 0
vt 0.334419310092926 0.5599563717842102 0
vt 0.334419310092926 0.5195755362510681 0
vt 0.3714529275894165 0.5195755362510681 0
vt 0.1028907299041748 0.532709002494812 0
vt 0.1363608837127686 0.532709002494812 0
vt 0.1363608837127686 0.5672595500946045 0
vt 0.1028907299041748 0.5672595500946045 0
vt 0.854406476020813 0.4381201267242432 0
vt 0.854406476020813 0.4495871663093567 0
vt 0.843550443649292 0.4495871663093567 0
vt 0.843550443649292 0.4381201267242432 0
vt 0.2576457262039185 0.47873854637146 0
vt 0.2946793437004089 0.47873854637146 0
vt 0.2946793437004089 0.5191194415092468 0
vt 0.2576457262039185 0.5191194415092468 0
vt 0.2955256104469299 0.47873854637146 0
vt 0.3346437811851501 0.47873854637146 0
vt 0.3346437811851501 0.5191194415092468 0
vt 0.2955256104469299 0.5191194415092468 0
vt 0.5217034816741943 0.6147480010986328 0
vt 0.532411515712738 0.6147480010986328 0
vt 0.532411515712738 0.6258016228675842 0
vt 0.5217034816741943 0.6258016228675842 0
vt 0.8081036806106567 0.8078339099884033 0
vt 0.8415738344192505 0.8078339099884033 0
vt 0.8415738344192505 0.8423844575881958 0
vt 0.8081036806106567 0.8423844575881958 0
vt 0.1600264012813568 0.4738684892654419 0
vt 0.09603089094161987 0.4738684892654419 0
vt 0.09603089094161987 0.4040887355804443 0
vt 0.1600264012813568 0.4040887355804443 0
vt 0.6542540788650513 0.3371423482894897 0
vt 0.7058899402618408 0.3371423482894897 0
vt 0.7058899402618408 0.3904451131820679 0
vt 0.6542540788650513 0.3904451131820679 0
vt 0.2715035974979401 0.3754331767559052 0
vt 0.3446737229824066 0.3754331767559052 0
vt 0.3446737229824066 0.4552167356014252 0
vt 0.2715035974979401 0.4552167356014252 0
vt 0.3350619673728943 0.5394893288612366 0
vt 0.345770001411438 0.5394893288612366 0
vt 0.345770001411438 0.550542950630188 0
vt 0.3350619673728943 0.550542950630188 0
vt 0.6980503797531128 0.408899337053299 0
vt 0.6980503797531128 0.6143252849578857 0
vt 0.6572138071060181 0.6143252849578857 0
vt 0.6572138071060181 0.408899337053299 0
vt 0.1449746489524841 0.6093341112136841 0
vt 0.08097913861274719 0.6093341112136841 0
vt 0.08097913861274719 0.5395543575286865 0
vt 0.1449746489524841 0.5395543575286865 0
vt 0.4596081376075745 0.4246561527252197 0
vt 0.547903299331665 0.4246561527252197 0
vt 0.547903299331665 0.5158014893531799 0
vt 0.4596081376075745 0.5158014893531799 0
vt 0.8730683922767639 0.8773252964019775 0
vt 0.8413817882537842 0.8773252964019775 0
vt 0.8413817882537842 0.8427747488021851 0
vt 0.8730683922767639 0.8427747488021851 0
vt 0.3463186323642731 0.4040887355804443 0
vt 0.413916289806366 0.4040887355804443 0
vt 0.413916289806366 0.4738684892654419 0
vt 0.3463186323642731 0.4738684892654419 0
vt 0.6899980306625366 0.5771110057830811 0
vt 0.6822370290756226 0.5771110057830811 0
vt 0.6822370290756226 0.5686484575271606 0
vt 0.6899980306625366 0.5686484575271606 0

# 12 vertex normals
vn 0 0 1
vn 0 0 -1
vn 1 0 0
vn -1 0 0
vn 0 0.9999999403953552 0
vn 0 -0.9999999403953552 0
vn 0 1 0
vn 0 -1 0
vn 0 0 0.9999999403953552
vn 0.9999999403953552 0 0
vn 0 0 -0.9999999403953552
vn -0.9999999403953552 0 0

# Mesh 'tree_medium_mesh' with 46 faces
g tree_medium_mesh
usemtl lambert5
f  1/1/1 2/2/1 3/3/1 4/4/1
f  5/5/2 6/6/2 7/7/2 8/8/2
f  2/9/3 7/10/3 6/11/3 3/12/3
f  8/13/4 1/14/4 4/15/4 5/16/4
f  9/17/5 10/18/5 11/19/5 12/20/5
f  13/21/6 14/22/6 15/23/6 16/24/6
f  15/25/2 14/26/2 10/27/2 9/28/2
f  14/29/4 13/30/4 11/31/4 10/32/4
f  13/33/1 16/34/1 12/35/1 11/36/1
f  16/37/3 15/38/3 9/39/3 12/40/3
f  17/17/7 18/18/7 19/19/7 20/20/7
f  21/41/8 22/42/8 23/43/8 24/44/8
f  23/45/9 22/46/9 18/47/9 17/48/9
f  22/49/10 21/50/10 19/51/10 18/52/10
f  21/33/11 24/34/11 20/35/11 19/36/11
f  24/53/12 23/54/12 17/55/12 20/56/12
f  25/17/7 26/18/7 27/19/7 28/20/7
f  29/21/8 30/22/8 31/23/8 32/24/8
f  31/25/1 30/26/1 26/27/1 25/28/1
f  30/57/3 29/58/3 27/59/3 26/60/3
f  29/61/2 32/62/2 28/63/2 27/64/2
f  32/65/4 31/66/4 25/67/4 28/68/4
f  33/17/7 34/18/7 35/19/7 36/20/7
f  37/21/8 38/22/8 39/23/8 40/24/8
f  39/69/1 38/70/1 34/71/1 33/72/1
f  38/57/3 37/58/3 35/59/3 34/60/3
f  37/61/2 40/62/2 36/63/2 35/64/2
f  40/73/4 39/74/4 33/75/4 36/76/4
f  41/17/7 42/18/7 43/19/7 44/20/7
f  45/77/8 46/78/8 47/79/8 48/80/8
f  47/45/1 46/46/1 42/47/1 41/48/1
f  46/57/3 45/58/3 43/59/3 42/60/3
f  45/81/2 48/82/2 44/83/2 43/84/2
f  48/85/4 47/86/4 41/87/4 44/88/4
f  49/17/7 50/18/7 51/19/7 52/20/7
f  53/21/8 54/22/8 55/23/8 56/24/8
f  55/25/4 54/26/4 50/27/4 49/28/4
f  54/49/1 53/50/1 51/51/1 50/52/1
f  53/89/3 56/90/3 52/91/3 51/92/3
f  56/93/2 55/94/2 49/95/2 52/96/2
f  57/17/7 58/18/7 59/19/7 60/20/7
f  61/41/8 62/42/8 63/43/8 64/44/8
f  63/45/1 62/46/1 58/47/1 57/48/1
f  62/49/3 61/50/3 59/51/3 58/52/3
f  61/97/2 64/98/2 60/99/2 59/100/2
f  64/85/4 63/86/4 57/87/4 60/88/4

